<svg width="572" height="294" xmlns="http://www.w3.org/2000/svg"><g fill="#000" fill-rule="evenodd" opacity=".12"><path d="M469.366 265.29a.823.823 0 0 1-.58-1.403l20.562-20.609a.818.818 0 0 1 1.16 0c.32.321.32.841 0 1.163l-20.562 20.61c-.16.16-.37.24-.58.24zM285.65 166.996a.823.823 0 0 1-.58-1.403l13.945-13.98a.818.818 0 0 1 1.16 0c.32.321.32.841 0 1.162l-13.946 13.98c-.16.16-.37.24-.58.24z"/><path d="M284.967 167.147c-.21 0-.42-.08-.58-.241l-13.946-13.98a.822.822 0 0 1 1.16-1.162l13.946 13.98a.822.822 0 0 1-.58 1.403zM282.368 41.044a.858.858 0 0 1 .607-1.004.85.85 0 0 1 1 .626.836.836 0 0 1-.622.986h.016c-.066.016-.132.016-.197.016a.824.824 0 0 1-.804-.624zm7.987 2.136a.832.832 0 0 1-.148-1.15.832.832 0 0 1 1.164-.148c.345.28.41.806.132 1.15a.8.8 0 0 1-.64.33.838.838 0 0 1-.508-.182zm-13.661 3.37c-.41-.18-.573-.673-.376-1.084a.808.808 0 0 1 1.082-.395c.41.198.59.69.394 1.1v-.015a.8.8 0 0 1-.738.477.728.728 0 0 1-.362-.083zm16.842 3.157v-.017-.082a.8.8 0 0 1 .805-.822c.457-.017.82.346.836.805v.116c0 .46-.379.822-.82.822a.813.813 0 0 1-.82-.822zm-17.169 4.356a.823.823 0 0 1 .377-1.101.819.819 0 0 1 1.098.378.837.837 0 0 1-.376 1.101.727.727 0 0 1-.362.082.81.81 0 0 1-.737-.46zm13.94 3.27a.828.828 0 0 1 .113-1.149.814.814 0 0 1 1.164.13.817.817 0 0 1-.13 1.151.832.832 0 0 1-.509.181.826.826 0 0 1-.638-.312zm-7.217 2.073a.818.818 0 0 1-.607-.987.8.8 0 0 1 .968-.624.822.822 0 1 1-.18 1.627c-.05 0-.115-.016-.18-.016zM285.268 45.141c-2.513 0-4.558 2.05-4.558 4.57a4.568 4.568 0 0 0 4.558 4.568 4.568 4.568 0 0 0 4.558-4.569c0-2.52-2.045-4.569-4.558-4.569zm0 10.782c-3.417 0-6.197-2.787-6.197-6.213s2.78-6.212 6.197-6.212c3.417 0 6.198 2.786 6.198 6.212 0 3.426-2.78 6.213-6.198 6.213zM284.806 9.41c-.94.84-2.9 2.867-2.9 5.135 0 2.276 1.957 4.296 2.896 5.134.94-.84 2.899-2.867 2.899-5.134 0-2.277-1.957-4.297-2.895-5.136zm-.002 12.162a.822.822 0 0 1-.49-.163c-.165-.124-4.047-3.07-4.047-6.864 0-3.796 3.882-6.741 4.046-6.864a.82.82 0 0 1 .98 0c.166.123 4.047 3.068 4.047 6.864 0 3.795-3.881 6.74-4.046 6.864a.822.822 0 0 1-.49.163zM490.361 243.411c.835.089 2.452.227 4.5.227 4.939 0 14.06-.838 19.65-6.441 7.465-7.483 6.518-21.146 6.198-24.212a43.574 43.574 0 0 0-4.5-.227c-4.939 0-14.06.838-19.65 6.442-7.465 7.482-6.518 21.145-6.198 24.211zm4.5 1.87c-3.145 0-5.267-.304-5.357-.317a.824.824 0 0 1-.693-.696c-.101-.7-2.388-17.233 6.589-26.231 5.707-5.722 14.465-6.922 20.809-6.922 3.145 0 5.267.305 5.357.317.358.054.64.336.693.695.101.7 2.388 17.234-6.588 26.232-5.708 5.722-14.466 6.923-20.81 6.923zM286.237 181.496c1.377 1.65 6.19 6.887 11.753 6.887 5.573 0 10.376-5.235 11.752-6.887-1.378-1.65-6.19-6.888-11.752-6.888-5.575 0-10.377 5.236-11.753 6.888zm11.753 8.53c-7.399 0-13.218-7.71-13.462-8.04a.821.821 0 0 1 0-.982c.244-.329 6.063-8.04 13.462-8.04 7.397 0 13.217 7.711 13.46 8.04a.821.821 0 0 1 0 .983c-.243.329-6.063 8.04-13.46 8.04z"/><path d="M260.764 181.496c1.378 1.649 6.19 6.885 11.753 6.885 5.56 0 10.373-5.235 11.752-6.885-1.379-1.65-6.191-6.888-11.752-6.888-5.574 0-10.378 5.236-11.753 6.888zm11.753 8.529c-7.398 0-13.218-7.71-13.462-8.038a.823.823 0 0 1 0-.983c.244-.329 6.064-8.04 13.462-8.04s13.217 7.711 13.46 8.04a.821.821 0 0 1 0 .983c-.243.329-6.062 8.038-13.46 8.038zM449.539 284.334c.57.054 1.497.12 2.63.12 3.142 0 8.934-.528 12.463-4.066 4.546-4.556 4.15-12.806 3.934-15.132a28.09 28.09 0 0 0-2.636-.12c-3.138 0-8.93.528-12.458 4.064-4.545 4.558-4.15 12.808-3.933 15.134zm2.63 1.764c-2.046 0-3.434-.199-3.492-.207a.823.823 0 0 1-.693-.695c-.066-.458-1.558-11.255 4.329-17.158 3.748-3.758 9.473-4.547 13.617-4.547 2.05 0 3.44.2 3.497.208.36.052.64.335.694.695.065.457 1.558 11.255-4.329 17.156-3.75 3.76-9.478 4.548-13.622 4.548zM546.144 270.467c.58.168 1.498.38 2.471.38.93 0 1.712-.19 2.33-.568.967-.592 1.613-1.315 1.859-2.087.191-.604.136-1.208-.164-1.702-.69-1.128-2.417-1.274-4.14-.216-1.547.947-2.148 3.112-2.356 4.193zm2.471 2.024c-1.93 0-3.62-.67-3.696-.7a.826.826 0 0 1-.508-.838c.016-.178.432-4.368 3.237-6.083 2.52-1.544 5.232-1.131 6.391.763.542.896.662 2.013.328 3.063-.371 1.153-1.263 2.185-2.57 2.986-.874.536-1.946.81-3.182.81zM506.633 277.794c-.926 0-1.708.19-2.323.568-2.015 1.234-2.303 2.793-1.696 3.79.687 1.127 2.415 1.27 4.138.217 1.547-.947 2.146-3.113 2.356-4.195-.578-.166-1.5-.38-2.475-.38zm-2.153 6.96c-1.38 0-2.6-.651-3.266-1.745-.999-1.64-.723-4.233 2.24-6.05.877-.536 1.946-.81 3.18-.81 1.933 0 3.624.673 3.696.702a.822.822 0 0 1 .51.838c-.015.179-.433 4.367-3.233 6.083-1.065.652-2.117.982-3.127.982z"/><path d="M517.447 281.903c-.698 0-1.4-.072-2.098-.22a10.048 10.048 0 0 1-6.393-4.377c-2.49-3.821-1.416-8.96 2.395-11.458 3.125-2.044 7.327-1.162 9.372 1.97a4.755 4.755 0 0 1 .602 3.893c-.29 1.064-.944 2.058-1.667 2.531-.808.53-1.744.783-2.597.733-.776-.05-1.874-.382-2.713-1.668a.825.825 0 0 1 .239-1.139.822.822 0 0 1 1.135.24c.38.584.854.887 1.446.926.515.04 1.09-.136 1.594-.469.269-.175.752-.743.981-1.586.171-.631.242-1.587-.394-2.562a5.128 5.128 0 0 0-7.1-1.491 6.59 6.59 0 0 0-2.858 4.19 6.605 6.605 0 0 0 .94 4.99 8.413 8.413 0 0 0 5.354 3.669 8.413 8.413 0 0 0 6.377-1.203 10.747 10.747 0 0 0 4.08-4.942.825.825 0 0 1 1.07-.45c.42.173.62.654.449 1.073a12.41 12.41 0 0 1-4.702 5.697 10.036 10.036 0 0 1-5.512 1.653z"/><path d="M539.124 283.038a6.767 6.767 0 0 1-5.79-3.246 4.757 4.757 0 0 1-.487-3.908c.322-1.056 1.006-2.029 1.744-2.48.82-.504 1.755-.736 2.619-.655.77.076 1.859.439 2.663 1.75a.828.828 0 0 1-.274 1.13.817.817 0 0 1-1.126-.272c-.366-.596-.831-.914-1.422-.97-.514-.053-1.093.104-1.607.42-.273.168-.771.721-1.028 1.557-.191.626-.29 1.578.317 2.571 1.471 2.42 4.637 3.182 7.053 1.708 3.111-1.907 4.096-6 2.193-9.12-2.433-3.998-7.666-5.263-11.652-2.82a10.704 10.704 0 0 0-4.458 5.377.824.824 0 0 1-1.058.477.825.825 0 0 1-.476-1.061 12.34 12.34 0 0 1 5.137-6.197c4.765-2.912 10.998-1.403 13.907 3.367 2.373 3.895 1.148 9-2.74 11.38a6.724 6.724 0 0 1-3.515.992zM19.479 265.532c-.747 0-1.374.343-1.72.942-.582 1.008-.315 2.58 1.598 3.816.572.37 1.3.557 2.164.557.902 0 1.757-.205 2.3-.37-.195-1.08-.761-3.265-2.23-4.215-.74-.478-1.47-.73-2.112-.73zm2.042 6.96c-1.185 0-2.212-.276-3.052-.821-2.805-1.813-3.07-4.391-2.129-6.022 1.103-1.91 3.728-2.328 6.14-.768 2.657 1.716 3.051 5.898 3.066 6.076a.82.82 0 0 1-.497.828c-.067.029-1.681.706-3.528.706zM58.978 278.165c.195 1.078.76 3.265 2.23 4.215.739.477 1.47.73 2.113.73.746 0 1.373-.343 1.719-.942.582-1.008.313-2.58-1.599-3.818-.57-.368-1.298-.556-2.162-.556-.908 0-1.761.205-2.301.37zm4.343 6.59c-.973 0-1.983-.334-3.002-.994-2.657-1.718-3.051-5.898-3.066-6.074a.82.82 0 0 1 .496-.83c.068-.028 1.683-.707 3.53-.707 1.185 0 2.212.276 3.051.82 2.804 1.812 3.069 4.392 2.128 6.022-.636 1.104-1.809 1.762-3.137 1.762z"/><path d="M51.042 281.903c-1.857 0-3.677-.568-5.263-1.666-2.01-1.39-3.552-3.36-4.459-5.7a.823.823 0 0 1 .468-1.062.816.816 0 0 1 1.062.47c.787 2.029 2.121 3.736 3.86 4.94 1.753 1.21 3.846 1.64 5.895 1.21 2.12-.444 3.942-1.749 5.129-3.67 1.898-3.076 1.085-7.207-1.813-9.213a4.547 4.547 0 0 0-3.546-.728c-1.276.268-2.374 1.055-3.09 2.215-1.149 1.86.021 3.814.55 4.18.54.371 1.163.53 1.672.428.44-.093.815-.389 1.12-.882a.819.819 0 0 1 1.129-.266.822.822 0 0 1 .266 1.13c-.542.878-1.296 1.442-2.18 1.626-.949.203-2.022-.051-2.939-.685-1.247-.862-2.653-3.738-1.013-6.394.955-1.548 2.429-2.6 4.15-2.96 1.674-.356 3.385-.002 4.812.985 3.606 2.493 4.627 7.619 2.276 11.427-1.425 2.31-3.622 3.879-6.187 4.416a9.205 9.205 0 0 1-1.899.2z"/><path d="M30.512 283.043a6.185 6.185 0 0 1-3.37-1.008c-3.677-2.38-4.844-7.471-2.604-11.351 1.361-2.359 3.517-3.998 6.07-4.614 2.47-.602 5.023-.16 7.187 1.24 2.253 1.457 3.937 3.6 4.873 6.199a.823.823 0 0 1-.494 1.053.825.825 0 0 1-1.049-.494c-.812-2.26-2.271-4.117-4.218-5.377-1.782-1.152-3.884-1.515-5.914-1.024-2.114.51-3.901 1.875-5.036 3.838-1.81 3.136-.879 7.239 2.073 9.15a4.531 4.531 0 0 0 3.556.614c1.273-.308 2.351-1.13 3.036-2.316 1.096-1.896-.128-3.808-.668-4.156-.55-.356-1.177-.501-1.679-.376-.438.106-.808.416-1.1.92a.821.821 0 1 1-1.418-.826c.517-.895 1.255-1.48 2.135-1.693.94-.22 2.018-.01 2.952.594 1.272.821 2.763 3.65 1.197 6.36-.911 1.579-2.357 2.676-4.07 3.092a6.222 6.222 0 0 1-1.459.175zM302.636 15.175a.822.822 0 0 1-.58-1.403l7.466-7.484a.818.818 0 0 1 1.16 0c.32.322.32.842 0 1.163l-7.466 7.483c-.16.16-.37.24-.58.24zM309.218 15.175a.822.822 0 0 1-.58-1.403l7.465-7.484a.818.818 0 0 1 1.159 0c.32.322.32.842 0 1.163l-7.464 7.483c-.16.16-.37.24-.58.24zM315.798 15.175a.822.822 0 0 1-.58-1.403l7.467-7.484a.818.818 0 0 1 1.159 0c.32.322.32.842 0 1.163l-7.466 7.483c-.16.16-.37.24-.58.24z"/><path d="M310.102 23.752a.816.816 0 0 1-.61-.274l-7.466-8.35a.824.824 0 0 1 .062-1.161.817.817 0 0 1 1.158.064l7.466 8.35a.823.823 0 0 1-.61 1.37zM316.682 23.752a.816.816 0 0 1-.61-.274l-7.464-8.35a.824.824 0 0 1 .062-1.161.817.817 0 0 1 1.158.064l7.465 8.35a.824.824 0 0 1-.61 1.37zM323.264 23.752a.816.816 0 0 1-.61-.274l-7.466-8.35a.824.824 0 0 1 .062-1.161.817.817 0 0 1 1.158.064l7.466 8.35a.824.824 0 0 1-.61 1.37zM252.772 252.896a.824.824 0 0 1-.594-1.389l15.744-16.604a.818.818 0 0 1 1.159-.029.824.824 0 0 1 .03 1.163l-15.745 16.604a.814.814 0 0 1-.594.255zM268.555 252.896a.823.823 0 0 1-.594-1.389l15.744-16.604a.822.822 0 0 1 1.189 1.134L269.15 252.64a.815.815 0 0 1-.595.255zM284.338 252.896a.824.824 0 0 1-.594-1.389l15.743-16.604a.822.822 0 0 1 1.189 1.134l-15.744 16.604a.818.818 0 0 1-.594.255z"/><path d="M268.516 252.896a.816.816 0 0 1-.594-.255l-15.744-16.604a.824.824 0 0 1 .03-1.163.817.817 0 0 1 1.158.03l15.744 16.603a.824.824 0 0 1-.594 1.39zM284.3 252.896a.819.819 0 0 1-.595-.255l-15.744-16.604a.823.823 0 0 1 .03-1.163.817.817 0 0 1 1.159.03l15.744 16.603a.824.824 0 0 1-.595 1.39zM300.082 252.896a.819.819 0 0 1-.595-.255l-15.743-16.604a.82.82 0 1 1 1.188-1.133l15.744 16.603a.824.824 0 0 1-.594 1.39z"/><path d="M300.12 252.896a.824.824 0 0 1-.594-1.389l15.744-16.604a.822.822 0 0 1 1.188 1.134l-15.744 16.604a.818.818 0 0 1-.594.255z"/><path d="M315.864 252.896a.819.819 0 0 1-.594-.255l-15.744-16.604a.82.82 0 1 1 1.188-1.133l15.744 16.603a.823.823 0 0 1-.594 1.39zM266.156 15.175a.814.814 0 0 1-.6-.262l-6.962-7.483a.822.822 0 0 1 .041-1.161.818.818 0 0 1 1.159.04l6.962 7.484a.823.823 0 0 1-.6 1.382zM260.019 15.175a.813.813 0 0 1-.6-.262l-6.962-7.483a.823.823 0 0 1 .041-1.161.817.817 0 0 1 1.16.04l6.96 7.484a.822.822 0 0 1-.6 1.382zM253.881 15.175a.815.815 0 0 1-.6-.262l-6.96-7.483a.822.822 0 0 1 .04-1.161.818.818 0 0 1 1.159.04l6.961 7.484a.822.822 0 0 1-.6 1.382z"/><path d="M259.194 22.997a.824.824 0 0 1-.604-1.378l6.963-7.596a.82.82 0 1 1 1.207 1.113l-6.962 7.595a.817.817 0 0 1-.604.266zM253.057 22.997a.824.824 0 0 1-.604-1.378l6.962-7.596a.82.82 0 1 1 1.208 1.113l-6.962 7.595a.816.816 0 0 1-.604.266zM246.92 22.997a.824.824 0 0 1-.604-1.378l6.962-7.596a.82.82 0 1 1 1.207 1.113l-6.961 7.595a.817.817 0 0 1-.604.266zM285.268 182.146a.82.82 0 0 1-.82-.822V114.69a.82.82 0 1 1 1.64 0v66.634a.82.82 0 0 1-.82.822zM337.745 95.075a.82.82 0 0 1-.82-.822v-22.15a.82.82 0 1 1 1.64 0v22.15a.82.82 0 0 1-.82.822zM344.442 88.362a.82.82 0 0 1-.82-.822V66.05a.82.82 0 1 1 1.64 0V87.54a.82.82 0 0 1-.82.822zM330.775 88.362a.82.82 0 0 1-.82-.822V66.05a.82.82 0 1 1 1.64 0V87.54a.82.82 0 0 1-.82.822zM423.855 132.797a.82.82 0 0 1-.82-.822V101.25a.82.82 0 1 1 1.64 0v30.725a.82.82 0 0 1-.82.822z"/><path d="M382.173 143.784a.823.823 0 0 1-.58-1.403L500.298 23.388a.818.818 0 0 1 1.16 0c.32.321.32.841 0 1.162L382.753 143.543c-.16.16-.37.24-.58.24z"/><path d="M402.13 123.24h-30.649a.82.82 0 0 1-.82-.823.82.82 0 0 1 .82-.822h30.65a.82.82 0 0 1 .82.822.82.82 0 0 1-.82.822zM562.071 189.648a.81.81 0 0 1-.58-.24L396.262 23.774a.824.824 0 0 1 0-1.163.82.82 0 0 1 1.16 0l165.23 165.633a.83.83 0 0 1 0 1.162.828.828 0 0 1-.58.24z"/><path d="M388.911 6.768c-5.16 0-9.359 4.209-9.359 9.381 0 5.173 4.199 9.381 9.36 9.381 5.159 0 9.356-4.208 9.356-9.38 0-5.173-4.197-9.382-9.357-9.382zm0 20.406c-6.065 0-10.999-4.945-10.999-11.025s4.934-11.024 11-11.024c6.062 0 10.996 4.945 10.996 11.024 0 6.08-4.934 11.025-10.997 11.025zM413.541 40.213c-.22 2.358-.636 10.81 4.02 15.477 3.608 3.616 9.525 4.156 12.731 4.156 1.17 0 2.124-.069 2.705-.124.221-2.359.636-10.811-4.02-15.478-3.606-3.615-9.523-4.155-12.73-4.155-1.17 0-2.125.069-2.706.124zm16.751 21.277c-4.226 0-10.066-.804-13.89-4.637-6.007-6.02-4.483-17.035-4.416-17.501a.822.822 0 0 1 .694-.695c.06-.008 1.476-.212 3.568-.212 4.226 0 10.067.804 13.89 4.637 6.006 6.02 4.481 17.035 4.414 17.502a.82.82 0 0 1-.693.693c-.06.01-1.476.213-3.567.213zM465.401 89.56c1.509 1.824 7.176 8.094 13.76 8.094 6.582 0 12.25-6.268 13.758-8.093-1.509-1.825-7.176-8.093-13.758-8.093-6.595 0-12.253 6.268-13.76 8.092zm13.76 9.739c-8.492 0-15.185-8.87-15.465-9.247a.819.819 0 0 1 0-.982c.28-.378 6.973-9.245 15.465-9.245s15.185 8.867 15.465 9.245a.82.82 0 0 1 0 .982c-.28.378-6.973 9.247-15.465 9.247z"/><path d="M463.93 91.557c-1.817 1.512-8.072 7.193-8.072 13.792 0 6.61 6.252 12.283 8.073 13.792 1.82-1.512 8.074-7.193 8.074-13.792 0-6.61-6.253-12.283-8.074-13.792zm0 29.459a.822.822 0 0 1-.49-.163c-.375-.282-9.222-6.99-9.222-15.504 0-8.513 8.847-15.222 9.223-15.504a.821.821 0 0 1 .98 0c.376.282 9.224 6.99 9.224 15.504 0 8.513-8.848 15.222-9.224 15.504a.822.822 0 0 1-.49.163zM367.608 157.336c.423.036 1.033.073 1.762.073 2.3 0 6.539-.384 9.107-2.96 3.208-3.215 3.034-8.989 2.877-10.895a21.465 21.465 0 0 0-1.763-.072c-2.298 0-6.538.384-9.106 2.957-3.208 3.217-3.034 8.992-2.877 10.897zm1.762 1.717c-1.536 0-2.583-.15-2.626-.156a.823.823 0 0 1-.694-.695c-.05-.344-1.172-8.465 3.275-12.925 2.836-2.843 7.147-3.439 10.266-3.439 1.537 0 2.584.15 2.627.156.359.053.641.335.694.695.05.343 1.172 8.465-3.275 12.923-2.836 2.843-7.149 3.44-10.267 3.44zM500.936 23.826c.49.044 1.24.094 2.142.094 2.665 0 7.58-.447 10.567-3.44 3.789-3.8 3.521-10.646 3.337-12.742-.49-.045-1.24-.095-2.142-.095-2.665 0-7.58.447-10.567 3.441-3.789 3.799-3.522 10.645-3.337 12.742zm2.142 1.738c-1.76 0-2.956-.173-3.006-.18a.821.821 0 0 1-.693-.694c-.056-.393-1.34-9.681 3.735-14.768C506.347 6.68 511.274 6 514.84 6c1.76 0 2.956.173 3.005.18.359.052.641.335.694.695.056.393 1.34 9.68-3.735 14.767-3.233 3.242-8.16 3.923-11.726 3.923zM494.722 122.006c-1.82 1.512-8.073 7.194-8.073 13.793 0 6.61 6.252 12.283 8.073 13.793 1.82-1.512 8.075-7.194 8.075-13.793 0-6.599-6.256-12.28-8.075-13.793zm0 29.46a.812.812 0 0 1-.49-.164c-.376-.281-9.223-6.99-9.223-15.503 0-8.514 8.847-15.223 9.223-15.505a.821.821 0 0 1 .98 0c.376.282 9.225 6.991 9.225 15.505 0 8.513-8.849 15.222-9.225 15.503a.812.812 0 0 1-.49.163z"/><path d="M496.1 120.333c1.508 1.823 7.175 8.093 13.757 8.093 6.583 0 12.25-6.27 13.758-8.093-1.508-1.824-7.175-8.094-13.758-8.094-6.582 0-12.249 6.27-13.757 8.094zm13.757 9.737c-8.492 0-15.185-8.869-15.465-9.246a.821.821 0 0 1 0-.983c.28-.377 6.973-9.246 15.465-9.246 8.493 0 15.185 8.87 15.466 9.246a.821.821 0 0 1 0 .983c-.28.377-6.973 9.246-15.466 9.246zM523.886 151.034c-.14 3.52-.213 19.25 8.988 28.476 8.152 8.17 21.318 9.052 26.6 9.052.76 0 1.373-.019 1.804-.036.143-3.521.214-19.249-8.988-28.475-8.153-8.171-21.32-9.054-26.6-9.054-.761 0-1.375.019-1.804.037zm35.588 39.172c-5.484 0-19.17-.93-27.757-9.534-10.9-10.926-9.493-29.691-9.428-30.484a.82.82 0 0 1 .75-.752s.99-.083 2.65-.083c5.487 0 19.176.93 27.76 9.536 10.897 10.926 9.492 29.69 9.426 30.482a.82.82 0 0 1-.75.752s-.989.083-2.65.083zM482.902 42.533a.823.823 0 0 1-.588-1.396c8.166-8.393 8.166-22.05 0-30.442-3.127-3.216-7.285-4.987-11.707-4.987-4.421 0-8.578 1.77-11.706 4.987-5.117 5.257-5.117 13.811 0 19.07 1.944 2 4.53 3.101 7.28 3.101s5.336-1.1 7.28-3.101c3.243-3.333 1.66-7.919.513-9.1-1.07-1.1-2.455-1.757-3.706-1.757-1.094 0-2.114.477-3.03 1.418a.816.816 0 0 1-1.16.014.823.823 0 0 1-.012-1.162c1.217-1.252 2.67-1.913 4.202-1.913 1.708 0 3.486.82 4.88 2.252 1.846 1.897 3.295 7.482-.511 11.395-2.258 2.32-5.261 3.598-8.456 3.598-3.195 0-6.198-1.278-8.455-3.598-5.73-5.89-5.73-15.475 0-21.366 3.44-3.534 8.015-5.482 12.881-5.482 4.867 0 9.442 1.948 12.883 5.482 8.779 9.027 8.779 23.713 0 32.739a.819.819 0 0 1-.588.248z"/><path d="M504.542 71.122c-3.858 0-7.716-1.42-10.654-4.263-2.316-2.241-3.59-5.224-3.59-8.397 0-3.174 1.274-6.156 3.59-8.398 3.904-3.776 9.47-2.337 11.362-.508 1.43 1.385 2.25 3.153 2.25 4.852 0 1.523-.662 2.968-1.912 4.178a.818.818 0 0 1-1.16-.02.824.824 0 0 1 .02-1.163c.937-.906 1.412-1.913 1.412-2.995 0-1.237-.653-2.608-1.75-3.669-1.175-1.14-5.757-2.71-9.082.508-1.994 1.929-3.091 4.491-3.091 7.215 0 2.723 1.097 5.286 3.09 7.215 5.246 5.077 13.785 5.077 19.03 0 3.205-3.102 4.97-7.224 4.97-11.606 0-4.383-1.765-8.504-4.97-11.605-8.373-8.105-22.001-8.105-30.374 0a.817.817 0 0 1-1.159-.021.823.823 0 0 1 .02-1.163c9.003-8.71 23.65-8.71 32.653 0 3.528 3.415 5.47 7.956 5.47 12.79 0 4.831-1.942 9.373-5.47 12.787-2.939 2.842-6.797 4.263-10.655 4.263zM544.312 159.805h-10.907a.822.822 0 1 1 0-1.643h10.907a.82.82 0 0 1 .82.822.82.82 0 0 1-.82.821z"/><path d="M532.934 171.316a.82.82 0 0 1-.82-.822v-10.937a.82.82 0 1 1 1.64 0v10.937a.82.82 0 0 1-.82.822zM539.517 177.912a.82.82 0 0 1-.82-.821v-10.938a.82.82 0 1 1 1.64 0v10.938a.82.82 0 0 1-.82.821zM547.134 184.11a.824.824 0 0 1-.82-.823v-9.496a.82.82 0 0 1 1.64 0v9.496a.82.82 0 0 1-.82.822z"/><path d="M551.065 166.575h-10.908a.82.82 0 0 1-.82-.822.82.82 0 0 1 .82-.822h10.908a.82.82 0 0 1 .82.822.82.82 0 0 1-.82.822zM556.467 173.607h-9.295a.82.82 0 0 1-.82-.822.82.82 0 0 1 .82-.822h9.295a.82.82 0 0 1 .82.822.82.82 0 0 1-.82.822zM366.273 118.44a3.977 3.977 0 0 0-3.967 3.977 3.977 3.977 0 0 0 3.967 3.977 3.978 3.978 0 0 0 0-7.955zm0 9.599c-3.09 0-5.607-2.523-5.607-5.622 0-3.1 2.516-5.622 5.607-5.622 3.092 0 5.608 2.522 5.608 5.622s-2.516 5.622-5.608 5.622zM402.435 154.268a.82.82 0 0 1-.82-.821v-30.724a.82.82 0 1 1 1.64 0v30.724a.82.82 0 0 1-.82.821z"/><path d="M402.435 154.69a3.979 3.979 0 0 0 0 7.956 3.979 3.979 0 0 0 0-7.957zm0 9.6c-3.092 0-5.608-2.523-5.608-5.622 0-3.1 2.516-5.623 5.608-5.623 3.093 0 5.609 2.522 5.609 5.623 0 3.099-2.516 5.621-5.609 5.621zM423.55 101.767h-30.648a.82.82 0 0 1-.82-.823.82.82 0 0 1 .82-.821h30.648a.82.82 0 0 1 .82.821.82.82 0 0 1-.82.823z"/><path d="M387.694 96.967a3.978 3.978 0 0 0 0 7.956 3.977 3.977 0 0 0 3.967-3.979 3.977 3.977 0 0 0-3.967-3.977zm0 9.6c-3.092 0-5.609-2.522-5.609-5.623 0-3.098 2.517-5.62 5.609-5.62 3.09 0 5.607 2.522 5.607 5.62 0 3.1-2.517 5.623-5.607 5.623zM423.855 133.218a3.977 3.977 0 0 0-3.967 3.978 3.976 3.976 0 0 0 3.967 3.976 3.977 3.977 0 0 0 0-7.954zm0 9.598c-3.091 0-5.607-2.522-5.607-5.62 0-3.1 2.516-5.623 5.607-5.623 3.092 0 5.608 2.523 5.608 5.623 0 3.098-2.516 5.62-5.608 5.62zM299.816 151.348c.957.105 2.958.285 5.52.285 7.229 0 17.187-1.343 23.564-7.735 9.066-9.086 7.799-25.744 7.43-29.156a51.593 51.593 0 0 0-5.52-.285c-7.23 0-17.187 1.342-23.564 7.734-9.066 9.087-7.799 25.744-7.43 29.157zm5.52 1.928c-3.746 0-6.27-.362-6.375-.377a.823.823 0 0 1-.694-.695c-.12-.832-2.84-20.49 7.82-31.176 6.772-6.79 17.184-8.215 24.723-8.215 3.746 0 6.27.362 6.376.378.359.052.64.335.693.695.12.831 2.84 20.49-7.82 31.174-6.772 6.79-17.183 8.216-24.723 8.216z"/><path d="M299.08 152.907a.823.823 0 0 1-.58-1.403l37.219-37.31a.818.818 0 0 1 1.16 0c.32.32.32.84 0 1.161l-37.22 37.311c-.16.161-.37.241-.58.241z"/><path d="M306.246 145.723h-.03a.823.823 0 0 1-.79-.852l.839-22.872c.017-.453.343-.83.85-.79a.822.822 0 0 1 .79.851l-.84 22.872a.822.822 0 0 1-.82.791z"/><path d="M327.41 146.678h-.03l-20.841-.767a.823.823 0 0 1-.79-.852c.016-.453.335-.78.85-.792l20.842.768a.823.823 0 0 1-.03 1.643zM333.587 139.592h-.03l-19.981-.737a.823.823 0 0 1-.79-.852c.018-.453.323-.803.85-.791l19.982.736a.822.822 0 1 1-.03 1.644zM336.412 131.084h-.03l-14.762-.544a.822.822 0 0 1 .03-1.644c.01 0 .02 0 .03.002l14.762.544a.821.821 0 0 1-.03 1.642zM336.412 123.526l-.03-.001-8.224-.304a.822.822 0 0 1 .061-1.642l8.223.304a.821.821 0 0 1-.03 1.643z"/><path d="M313.65 138.3h-.03a.824.824 0 0 1-.79-.853l.76-20.665c.017-.453.341-.82.85-.791a.823.823 0 0 1 .79.852l-.76 20.666a.823.823 0 0 1-.82.791zM321.496 130.435h-.03a.821.821 0 0 1-.79-.852l.55-14.977c.017-.452.328-.817.85-.79a.822.822 0 0 1 .79.851l-.55 14.977a.822.822 0 0 1-.82.791zM328.36 123.555h-.03a.823.823 0 0 1-.79-.853l.319-8.673c.017-.453.347-.84.85-.791a.822.822 0 0 1 .79.852l-.319 8.673a.824.824 0 0 1-.82.792zM233.209 114.421c-.367 3.414-1.625 20.08 7.43 29.157 6.376 6.391 16.333 7.733 23.563 7.733 2.562 0 4.563-.178 5.52-.283.367-3.415 1.626-20.08-7.429-29.157-6.377-6.393-16.335-7.735-23.567-7.735-2.56 0-4.56.179-5.517.285zm30.993 38.534c-7.54 0-17.95-1.425-24.722-8.214-10.659-10.686-7.94-30.345-7.82-31.177a.82.82 0 0 1 .693-.694c.106-.016 2.63-.378 6.373-.378 7.541 0 17.952 1.425 24.726 8.216 10.659 10.684 7.94 30.344 7.818 31.175a.821.821 0 0 1-.692.695c-.106.014-2.63.377-6.376.377z"/><path d="M270.46 152.586c-.21 0-.42-.08-.58-.24l-37.22-37.311a.823.823 0 0 1 0-1.163.82.82 0 0 1 1.16 0l37.22 37.311a.822.822 0 0 1-.58 1.403z"/><path d="M263.294 145.402h-.031l-22.816-.84a.822.822 0 0 1-.788-.854c.017-.454.402-.788.85-.791l22.814.841a.822.822 0 0 1-.03 1.644z"/><path d="M263.481 145.08h-.03a.822.822 0 0 1-.79-.853l.767-20.894a.82.82 0 1 1 1.638.061l-.766 20.894a.821.821 0 0 1-.819.792zM256.443 138.024h-.03a.821.821 0 0 1-.79-.852l.736-20.03c.016-.454.391-.824.85-.792a.82.82 0 0 1 .788.852l-.735 20.03a.82.82 0 0 1-.819.792zM248.149 129.96h-.031a.82.82 0 0 1-.79-.851l.544-14.799c.016-.453.412-.833.85-.79a.82.82 0 0 1 .788.851l-.542 14.798a.82.82 0 0 1-.819.792zM240.849 123.406h-.032a.82.82 0 0 1-.788-.852l.302-8.244c.016-.453.386-.833.85-.79a.82.82 0 0 1 .789.851l-.303 8.244a.82.82 0 0 1-.818.791z"/><path d="M255.889 137.979h-.032l-20.614-.76a.822.822 0 0 1-.789-.854c.016-.454.388-.788.85-.791l20.614.761a.821.821 0 0 1-.029 1.644zM248.044 130.115h-.031l-14.94-.552a.82.82 0 0 1-.789-.851c.016-.454.382-.825.85-.79l14.94.55a.82.82 0 0 1 .789.851.82.82 0 0 1-.819.792zM241.18 123.235c-.01 0-.02 0-.031-.002l-8.653-.32a.82.82 0 0 1-.79-.85c.018-.454.407-.827.85-.791l8.654.32a.82.82 0 0 1 .788.851.82.82 0 0 1-.818.792zM270.391 71.795l-.002 10.935c-.007 4.333-.016 11.132.002 13.445 0 10.932 4.94 16.472 14.684 16.472 12.465 0 15.082-8.954 15.082-16.466V72.447l-6.667 5.163a.82.82 0 0 1-1.175-.183c-1.9-2.755-5.644-5.436-6.94-6.317-1.22.873-4.653 3.451-6.609 6.139a.82.82 0 0 1-1.166.164l-7.209-5.618zm14.684 42.496c-10.68 0-16.323-6.262-16.323-18.11-.018-2.308-.01-9.115-.004-13.453l.004-12.613c0-.314.178-.6.46-.738a.816.816 0 0 1 .863.09l7.882 6.143c2.634-3.254 6.763-6.052 6.95-6.177a.815.815 0 0 1 .897-.01c.206.13 4.722 3.037 7.345 6.374l7.327-5.674a.823.823 0 0 1 .863-.087c.28.138.458.424.458.737v25.408c0 11.679-5.939 18.11-16.722 18.11zM274.527 14.673l10.277 10.301 10.275-10.3-10.275-10.302-10.277 10.301zm10.277 12.285c-.21 0-.42-.08-.58-.24l-11.436-11.464a.82.82 0 0 1 0-1.162L284.224 2.63a.818.818 0 0 1 1.16 0l11.434 11.463c.32.321.32.842 0 1.162l-11.435 11.464c-.16.16-.37.24-.58.24z"/><path d="M315.454 15.495h-19.216a.82.82 0 0 1-.82-.822.82.82 0 0 1 .82-.821h19.216a.82.82 0 0 1 .82.821.82.82 0 0 1-.82.822zM273.332 15.495h-19.215a.82.82 0 0 1-.82-.822.82.82 0 0 1 .82-.821h19.215a.82.82 0 0 1 .82.821.82.82 0 0 1-.82.822zM284.803 15.512c1.322 0 1.322-2.055 0-2.055s-1.322 2.055 0 2.055zM260.22 209.765a.823.823 0 0 1-.58-1.403l13.02-13.08a.819.819 0 0 1 1.161 0c.32.319.32.84 0 1.161L260.8 209.524a.82.82 0 0 1-.58.24z"/><path d="M277.214 200.717c-.21 0-.419-.08-.58-.24l-4.035-4.036a.824.824 0 0 1-.002-1.163c.32-.32.84-.32 1.16-.002l4.037 4.036a.82.82 0 1 1-.58 1.405zM273.183 222.658a.824.824 0 0 1-.58-1.403l4.025-4.048a.823.823 0 0 1 1.162-.001c.32.32.32.84.001 1.163l-4.028 4.047a.816.816 0 0 1-.58.242z"/><path d="M273.125 222.546a.818.818 0 0 1-.574-.234l-13.024-12.782a.82.82 0 1 1 1.147-1.175l13.024 12.782a.823.823 0 0 1-.573 1.41zM308.17 209.765a.82.82 0 0 1-.6-.262l-11.993-12.931a.82.82 0 1 1 1.201-1.12l11.993 12.93a.824.824 0 0 1-.6 1.383z"/><path d="M292.52 200.821a.822.822 0 0 1-.599-1.382l3.716-3.99a.82.82 0 1 1 1.198 1.121l-3.716 3.99a.816.816 0 0 1-.6.261zM296.232 222.508a.815.815 0 0 1-.6-.263l-3.708-4a.82.82 0 0 1 1.201-1.118l3.707 4a.82.82 0 0 1-.6 1.38z"/><path d="M296.286 222.397a.823.823 0 0 1-.594-1.389l11.993-12.632a.82.82 0 0 1 1.16-.029.823.823 0 0 1 .028 1.162l-11.993 12.633a.816.816 0 0 1-.594.255z"/><path d="M308.217 209.792h-47.425a.82.82 0 0 1-.82-.822.82.82 0 0 1 .82-.822h47.425a.82.82 0 0 1 .82.822.82.82 0 0 1-.82.822zM344.373 66.663h-12.956a.82.82 0 0 1-.82-.822.82.82 0 0 1 .82-.822h12.956a.82.82 0 0 1 .82.822.82.82 0 0 1-.82.822z"/><path d="M270.345 208.967l14.252 14.217 14.252-14.217-14.252-14.357-14.252 14.357zm14.252 16.198a.819.819 0 0 1-.578-.24l-15.411-15.373a.822.822 0 0 1-.004-1.162l15.412-15.525a.84.84 0 0 1 1.162 0l15.411 15.525a.823.823 0 0 1-.003 1.162l-15.41 15.374a.817.817 0 0 1-.579.24zM314.96 216.406a.811.811 0 0 1-.576-.237l-6.684-6.642a.826.826 0 0 1-.006-1.162l6.684-6.76a.818.818 0 0 1 1.16-.007c.32.32.324.841.005 1.162l-6.107 6.178 6.101 6.061a.824.824 0 0 1-.576 1.407zM337.726 95.233a.816.816 0 0 1-.577-.239l-6.744-6.701a.822.822 0 0 1-.006-1.162.818.818 0 0 1 1.16-.005l6.162 6.123 6.047-6.118a.818.818 0 0 1 1.159-.005c.322.32.325.84.007 1.162l-6.626 6.701a.819.819 0 0 1-.58.244h-.002z"/><path d="M325.16 80.778l4.705 4.676V76.02l-4.705 4.757zm5.525 7.47a.816.816 0 0 1-.576-.239l-6.685-6.643a.822.822 0 0 1-.006-1.162l6.685-6.759a.821.821 0 0 1 1.402.579v13.402a.82.82 0 0 1-.82.822zM345.32 76.05v9.434l4.704-4.758-4.704-4.675zm-.82 12.253a.822.822 0 0 1-.82-.822V74.078c0-.332.198-.631.504-.759a.816.816 0 0 1 .892.175l6.684 6.643a.822.822 0 0 1 .007 1.162l-6.685 6.76a.818.818 0 0 1-.583.243zM221.52 80.778l4.705 4.676V76.02l-4.705 4.757zm5.525 7.47a.82.82 0 0 1-.577-.239l-6.685-6.643a.821.821 0 0 1-.004-1.162l6.684-6.759a.821.821 0 0 1 1.402.579v13.402a.822.822 0 0 1-.82.822zM241.68 76.05v9.434l4.704-4.758-4.705-4.675zm-.821 12.253a.82.82 0 0 1-.82-.823V74.08c0-.332.2-.631.505-.759a.824.824 0 0 1 .892.175l6.685 6.643a.821.821 0 0 1 .004 1.162l-6.684 6.76a.817.817 0 0 1-.582.243zM337.726 73.445a.816.816 0 0 1-.577-.239l-6.744-6.7a.823.823 0 0 1-.006-1.163.818.818 0 0 1 1.16-.005l6.162 6.123 6.047-6.118a.818.818 0 0 1 1.159-.005c.322.32.325.84.007 1.163l-6.626 6.7a.819.819 0 0 1-.58.244h-.002zM253.562 216.485a.823.823 0 0 1-.577-1.406l6.181-6.141-6.185-6.257a.823.823 0 0 1 .004-1.161.819.819 0 0 1 1.16.006l6.763 6.839a.82.82 0 0 1-.005 1.162l-6.763 6.72a.816.816 0 0 1-.578.238zM266.092 281.494a.823.823 0 0 1-.577-1.406l5.844-5.808a.819.819 0 0 1 .576-.238h.004a.82.82 0 0 1 .58.244l5.743 5.808a.823.823 0 0 1-.007 1.162.818.818 0 0 1-1.159-.006l-5.165-5.224-5.263 5.23a.814.814 0 0 1-.576.238z"/><path d="M278.385 281.494a.82.82 0 0 1-.576-1.406l5.843-5.808a.813.813 0 0 1 .577-.238c.177.045.427.086.583.244l5.743 5.808a.824.824 0 0 1-.007 1.162.818.818 0 0 1-1.16-.006l-5.164-5.224-5.262 5.23a.812.812 0 0 1-.577.238z"/><path d="M289.975 281.494a.82.82 0 0 1-.577-1.406l5.844-5.808a.813.813 0 0 1 .576-.238c.217.045.428.086.583.244l5.743 5.808a.824.824 0 0 1-.006 1.162.818.818 0 0 1-1.16-.006l-5.164-5.224-5.263 5.23a.812.812 0 0 1-.576.238zM514.422 238.525c-.21 0-.42-.08-.58-.241-2.668-2.673-14.705-2.235-16.939 0a.818.818 0 0 1-1.16 0 .823.823 0 0 1 0-1.162c3.058-3.067 16.198-3.067 19.258 0a.822.822 0 0 1-.58 1.403z"/><path d="M496.798 237.84a.823.823 0 0 1-.58-1.403c1.044-1.046 1.795-4.502 1.827-8.403.032-4-.703-7.448-1.827-8.575a.824.824 0 0 1 0-1.162.82.82 0 0 1 1.16 0c2.195 2.2 2.32 8.02 2.307 9.75-.029 3.528-.65 7.891-2.308 9.553a.817.817 0 0 1-.58.24zM520.401 228.886c-.21 0-.42-.08-.58-.24-2.024-2.028-11.604-1.704-13.304 0a.82.82 0 0 1-1.16 0 .823.823 0 0 1 0-1.163c2.555-2.564 13.067-2.562 15.624 0a.823.823 0 0 1-.58 1.403z"/><path d="M506.317 228.34a.823.823 0 0 1-.58-1.403c1.7-1.703 2.024-11.308 0-13.337a.822.822 0 0 1 0-1.162.818.818 0 0 1 1.16 0c2.555 2.561 2.555 13.1 0 15.662-.16.16-.37.24-.58.24zM283.99 289.783c-7.222 0-13.17-5.894-13.256-13.137a.82.82 0 0 1 .81-.832c.41.026.823.358.83.813.075 6.347 5.287 11.511 11.616 11.511 6.33 0 11.54-5.164 11.616-11.511a.82.82 0 0 1 .82-.813h.01a.82.82 0 0 1 .81.832c-.085 7.243-6.032 13.137-13.256 13.137zM25.684 1.892c-3.249 0-6.537 3.166-6.537 9.217 0 14.245 12.51 18.737 17.583 19.973-2.088-2.82-5.577-9.035-4.967-18.528.252-3.902-.575-7.082-2.325-8.954-1.031-1.101-2.364-1.708-3.754-1.708zm13.052 31.141a.662.662 0 0 1-.092-.006c-.211-.025-21.033-2.793-21.033-21.918 0-7.062 4.06-10.757 8.073-10.757 1.819 0 3.55.78 4.875 2.195 1.446 1.546 3.095 4.555 2.738 10.106-.746 11.586 5.043 18.087 5.873 18.955a.77.77 0 0 1 .365.655c0 .431-.32.787-.783.77h-.016z"/><path d="M13.192 25.223c-1.527 0-2.807.825-3.424 2.209-.923 2.072-.208 4.726 1.912 7.1 2.942 3.292 6.519 4.962 10.633 4.962 3.703 0 7.048-1.368 9.01-2.376-2.779-.657-7.67-2.551-11.953-8.014-1.961-2.504-4.155-3.881-6.178-3.881zm9.121 15.811c-4.57 0-8.532-1.842-11.777-5.474-2.537-2.84-3.348-6.114-2.17-8.756.87-1.955 2.675-3.121 4.826-3.121 2.504 0 5.127 1.587 7.386 4.468 5.815 7.42 12.96 7.77 13.033 7.773a.77.77 0 1 1 .412 1.4c-.216.152-5.376 3.71-11.71 3.71zM547.544 3.566c-1.187 0-2.286.51-3.193 1.474-1.668 1.775-2.455 4.877-2.226 8.735.553 9.108-2.602 15.062-4.478 17.746 4.593-1.149 15.72-5.352 15.72-19.131 0-5.793-2.93-8.824-5.823-8.824zm-11.723 29.81a.736.736 0 0 1-.525-1.252c.06-.063 6.08-6.405 5.364-18.26-.257-4.268.673-7.76 2.62-9.835 1.175-1.249 2.69-1.937 4.264-1.937 3.625 0 7.294 3.538 7.294 10.298 0 18.301-18.732 20.955-18.924 20.98a.756.756 0 0 1-.093.005zM542.497 37.283c1.75.962 4.752 2.277 8.07 2.277 3.675 0 6.868-1.593 9.503-4.733 2.318-2.77 2.373-5.419 1.651-6.973-.574-1.243-1.656-1.955-2.963-1.955-1.788 0-3.745 1.312-5.495 3.697-3.85 5.237-8.262 7.056-10.766 7.687zm8.07 3.751s.006 0 0 0c-5.713 0-10.36-3.417-10.558-3.563a.734.734 0 0 1-.262-.81.735.735 0 0 1 .673-.518c.065-.003 6.451-.34 11.656-7.423 2.04-2.77 4.413-4.295 6.682-4.295 1.875 0 3.483 1.049 4.297 2.806.914 1.967.903 5.244-1.859 8.546-2.925 3.488-6.5 5.257-10.629 5.257zM484.772 190.154c-.21 0-.42-.081-.58-.242l-21.214-21.264a.823.823 0 0 1 0-1.163.819.819 0 0 1 1.16 0l21.214 21.265a.822.822 0 0 1-.58 1.404zM441.006 199.96c.477 4.696 4.468 8.39 9.26 8.39 4.791 0 8.782-3.694 9.26-8.39h-18.52zm9.26 10.034c-5.966 0-10.876-4.866-10.946-10.847a.82.82 0 0 1 .82-.832h20.252a.819.819 0 0 1 .82.832c-.07 5.981-4.98 10.847-10.946 10.847z"/><path d="M450.954 157.277v19.505l10.988-9.064-10.988-10.441zm-.82 22.068a.822.822 0 0 1-.82-.822v-23.097c0-.329.196-.657.497-.785.303-.135.65-.096.887.127l13.046 12.397a.821.821 0 0 1-.043 1.23l-13.046 10.762a.815.815 0 0 1-.52.188z"/><path d="M438.965 167.72l10.35 9.001V157.35l-10.35 10.37zm11.131 11.605a.755.755 0 0 1-.5-.181l-12.372-10.76a.826.826 0 0 1-.042-1.203l12.373-12.397a.825.825 0 0 1 .893-.178.822.822 0 0 1 .506.76v23.096c0 .322-.187.645-.478.778a.93.93 0 0 1-.38.085zM487.34 189.086a2.466 2.466 0 0 0 0 4.932 2.466 2.466 0 0 0 0-4.932zm0 6.575a4.109 4.109 0 0 1-4.099-4.11 4.108 4.108 0 0 1 4.1-4.109c2.261 0 4.1 1.843 4.1 4.11a4.109 4.109 0 0 1-4.1 4.11z"/><path d="M417.353 189.99a.822.822 0 0 1-.591-1.39l20.35-21.267a.812.812 0 0 1 1.157-.024.821.821 0 0 1 .024 1.16l-20.35 21.267a.81.81 0 0 1-.59.254z"/><path d="M414.89 188.756c-1.283 0-2.327 1.107-2.327 2.466 0 1.36 1.044 2.466 2.327 2.466 1.282 0 2.325-1.106 2.325-2.466s-1.043-2.466-2.325-2.466zm0 6.576c-2.188 0-3.967-1.843-3.967-4.11 0-2.266 1.779-4.11 3.967-4.11 2.185 0 3.965 1.844 3.965 4.11 0 2.267-1.78 4.11-3.965 4.11zM450.5 133.164a2.466 2.466 0 0 0 0 4.932 2.466 2.466 0 0 0 0-4.932zm0 6.576a4.108 4.108 0 0 1-4.1-4.11 4.108 4.108 0 0 1 4.1-4.11c2.261 0 4.1 1.843 4.1 4.11a4.108 4.108 0 0 1-4.1 4.11z"/><path d="M450.239 198.92a.82.82 0 0 1-.82-.822v-59.042a.82.82 0 1 1 1.64 0v59.042a.82.82 0 0 1-.82.822zM219.066 244.124a.823.823 0 0 1-.594-1.389l8.162-8.61a.82.82 0 0 1 1.16-.028.824.824 0 0 1 .029 1.162l-8.163 8.61a.814.814 0 0 1-.594.255z"/><path d="M227.228 244.124a.812.812 0 0 1-.594-.255l-8.162-8.61a.823.823 0 0 1 .03-1.162.82.82 0 0 1 1.158.029l8.163 8.61a.824.824 0 0 1-.595 1.388zM210.742 260.143h23.625c-.612-6.058-5.648-10.686-11.812-10.686-6.165 0-11.2 4.628-11.813 10.686zm24.5 1.643h-25.376a.818.818 0 0 1-.819-.847c.235-7.36 6.168-13.125 13.508-13.125 7.34 0 13.273 5.764 13.507 13.125a.82.82 0 0 1-.82.847zM222.555 266.76c-2.714 0-4.92 2.212-4.92 4.932s2.207 4.931 4.92 4.931 4.92-2.212 4.92-4.931c0-2.72-2.207-4.932-4.92-4.932zm0 11.508c-3.617 0-6.56-2.95-6.56-6.576 0-3.627 2.943-6.576 6.56-6.576 3.616 0 6.559 2.95 6.559 6.576 0 3.627-2.943 6.576-6.56 6.576zM222.555 281.144a2.466 2.466 0 0 0 0 4.932 2.466 2.466 0 0 0 0-4.932zm0 6.576c-2.26 0-4.1-1.843-4.1-4.11 0-2.267 1.84-4.11 4.1-4.11s4.1 1.843 4.1 4.11c0 2.267-1.84 4.11-4.1 4.11z"/><path d="M222.555 261.046a.82.82 0 0 1-.82-.822v-11.302a.82.82 0 1 1 1.64 0v11.302a.82.82 0 0 1-.82.822z"/><path d="M205.95 262.033a1.438 1.438 0 0 0 0 2.877h33.209a1.438 1.438 0 0 0 0-2.877H205.95zm33.209 4.521H205.95a3.081 3.081 0 0 1-3.074-3.082c0-1.7 1.38-3.082 3.074-3.082h33.209a3.082 3.082 0 0 1 3.074 3.082c0 1.7-1.38 3.082-3.074 3.082zM346.102 244.124a.824.824 0 0 1-.594-1.389l8.163-8.61a.82.82 0 0 1 1.16-.028.824.824 0 0 1 .028 1.162l-8.162 8.61a.817.817 0 0 1-.595.255z"/><path d="M354.265 244.124a.817.817 0 0 1-.594-.255l-8.163-8.61a.824.824 0 0 1 .03-1.162.82.82 0 0 1 1.159.029l8.162 8.61a.824.824 0 0 1-.594 1.388zM337.778 260.143h23.625a11.831 11.831 0 0 0-11.813-10.686c-6.162 0-11.198 4.628-11.812 10.686zm24.501 1.643h-25.377a.818.818 0 0 1-.82-.847c.237-7.36 6.17-13.125 13.508-13.125 7.342 0 13.273 5.764 13.509 13.125a.824.824 0 0 1-.82.847zM349.59 266.76c-2.712 0-4.919 2.212-4.919 4.932s2.207 4.931 4.92 4.931c2.712 0 4.92-2.212 4.92-4.931 0-2.72-2.208-4.932-4.92-4.932zm0 11.508c-3.617 0-6.56-2.95-6.56-6.576 0-3.627 2.943-6.576 6.56-6.576 3.618 0 6.56 2.95 6.56 6.576 0 3.627-2.942 6.576-6.56 6.576zM349.59 281.144a2.466 2.466 0 0 0 0 4.932 2.466 2.466 0 0 0 0-4.932zm0 6.576c-2.26 0-4.1-1.843-4.1-4.11a4.109 4.109 0 0 1 4.1-4.11c2.262 0 4.1 1.843 4.1 4.11a4.109 4.109 0 0 1-4.1 4.11z"/><path d="M349.59 261.046a.82.82 0 0 1-.82-.822v-11.302a.82.82 0 1 1 1.64 0v11.302a.82.82 0 0 1-.82.822z"/><path d="M332.987 262.033a1.439 1.439 0 0 0 0 2.877h33.207a1.438 1.438 0 0 0 0-2.877h-33.207zm33.207 4.521h-33.207a3.081 3.081 0 0 1-3.075-3.082c0-1.7 1.379-3.082 3.075-3.082h33.207a3.082 3.082 0 0 1 3.075 3.082c0 1.7-1.379 3.082-3.075 3.082zM301.947 281.336a.82.82 0 0 1-.82-.821v-8.725c0-3.43-2.783-6.221-6.205-6.221H272.94c-3.421 0-6.206 2.79-6.206 6.221v8.725a.82.82 0 1 1-1.64 0v-8.725c0-4.336 3.52-7.865 7.846-7.865h21.982c4.325 0 7.845 3.529 7.845 7.865v8.725a.82.82 0 0 1-.82.821zM404.69 276.265a.823.823 0 0 1-.58-1.403l4.702-4.712c.32-.32.84-.32 1.16 0 .32.321.32.842 0 1.163l-4.702 4.711a.817.817 0 0 1-.58.241zM368.917 207.827c-.21 0-.42-.08-.58-.241l-26.269-26.331a.822.822 0 0 1 0-1.162.818.818 0 0 1 1.16 0l26.269 26.33a.823.823 0 0 1-.58 1.404zM412.374 251.39c-.21 0-.42-.08-.58-.24l-26.268-26.332a.823.823 0 0 1 0-1.162.819.819 0 0 1 1.159 0l26.268 26.33a.823.823 0 0 1-.58 1.404zM374.807 184.593c-.985 0-1.91.383-2.607 1.082a3.704 3.704 0 0 0 0 5.226c1.393 1.397 3.82 1.397 5.214 0a3.704 3.704 0 0 0 0-5.226 3.657 3.657 0 0 0-2.607-1.082zm0 9.034a5.285 5.285 0 0 1-3.767-1.563 5.355 5.355 0 0 1 0-7.552c2.012-2.016 5.522-2.016 7.534 0a5.355 5.355 0 0 1 0 7.552 5.285 5.285 0 0 1-3.767 1.563z"/><path d="M341.903 168.136c-3.14 0-6.094 1.226-8.318 3.453-4.336 4.347-4.563 11.343-.653 15.97l16.585-16.627a11.689 11.689 0 0 0-7.614-2.796zm-8.998 21.434c-.202-.036-.432-.088-.586-.247-5.107-5.241-5.059-13.718.107-18.897a13.3 13.3 0 0 1 9.477-3.934c3.524 0 6.853 1.358 9.374 3.825a.82.82 0 0 1 .006 1.169l-17.798 17.844a.82.82 0 0 1-.58.24zM369.11 207.199l5.683 25.617 19.87-19.921-25.552-5.696zm5.314 27.972a.825.825 0 0 1-.176-.019l-.138-.03a.821.821 0 0 1-.624-.625l-6.257-28.202a.823.823 0 0 1 .979-.98l28.132 6.27c.31.069.554.313.623.626.061.273.008.697-.19.896l-21.77 21.824a.82.82 0 0 1-.579.24zM370.144 188.692h-20.26a.82.82 0 0 1-.82-.821.82.82 0 0 1 .82-.822h20.26a.82.82 0 0 1 .82.822.82.82 0 0 1-.82.821zM350.28 209.188c-.99 0-1.921.387-2.623 1.088a3.717 3.717 0 0 0-.008 5.238c1.396 1.398 3.825 1.391 5.223-.01 1.443-1.447 1.448-3.795.01-5.237a3.65 3.65 0 0 0-2.603-1.079zm-.028 9.048a5.275 5.275 0 0 1-3.762-1.56c-2.077-2.084-2.072-5.477.008-7.561 2.016-2.022 5.531-2.028 7.543-.01 2.077 2.082 2.072 5.474-.01 7.561a5.302 5.302 0 0 1-3.78 1.57z"/><path d="M349.855 209.03h-.002a.821.821 0 0 1-.818-.823l.029-20.338c0-.453.368-.82.82-.82h.001c.452 0 .819.369.819.823l-.03 20.339a.82.82 0 0 1-.82.82zM396.6 268.283a.821.821 0 0 1-.59-1.39l32.553-34.019a.82.82 0 0 1 1.182 1.136l-32.553 34.02a.81.81 0 0 1-.591.253zM409.392 271.553c-.21 0-.42-.08-.58-.24l-4.702-4.712a.823.823 0 0 1 0-1.162.818.818 0 0 1 1.16 0l4.701 4.711a.823.823 0 0 1-.58 1.403z"/><path d="M404.69 276.265c-.21 0-.42-.08-.58-.24l-7.98-8a.822.822 0 0 1 0-1.162.818.818 0 0 1 1.16 0l7.98 8a.822.822 0 0 1-.58 1.402zM404.741 266.79a.823.823 0 0 1-.58-1.403l4.701-4.711a.818.818 0 0 1 1.16 0c.32.32.32.84 0 1.162l-4.7 4.712c-.161.16-.371.24-.58.24z"/><path d="M414.142 266.79c-.21 0-.42-.08-.58-.24l-4.7-4.712a.822.822 0 0 1 0-1.162.818.818 0 0 1 1.16 0l4.7 4.711a.823.823 0 0 1-.58 1.403z"/><path d="M414.153 266.78a.823.823 0 0 1-.58-1.403l4.7-4.711a.818.818 0 0 1 1.16 0c.32.321.32.841 0 1.162l-4.7 4.712c-.16.16-.37.24-.58.24z"/><path d="M418.854 262.07c-.21 0-.42-.081-.58-.242l-4.7-4.712a.823.823 0 0 1 0-1.162.819.819 0 0 1 1.159 0l4.7 4.712a.823.823 0 0 1-.58 1.403zM423.614 257.296a.823.823 0 0 1-.58-1.403l4.701-4.711a.818.818 0 0 1 1.16 0c.32.32.32.84 0 1.162l-4.7 4.712c-.16.16-.37.24-.58.24z"/><path d="M428.315 252.584c-.21 0-.42-.08-.58-.24l-4.7-4.712a.823.823 0 0 1 0-1.162.818.818 0 0 1 1.16 0l4.7 4.712a.822.822 0 0 1-.58 1.402zM433.137 247.75a.823.823 0 0 1-.58-1.403l4.7-4.711a.818.818 0 0 1 1.16 0c.32.321.32.841 0 1.162l-4.7 4.712c-.161.16-.37.24-.58.24z"/><path d="M437.837 243.04c-.21 0-.42-.081-.58-.242l-8.8-8.823a.823.823 0 0 1 0-1.162.818.818 0 0 1 1.16 0l8.8 8.823a.822.822 0 0 1-.58 1.403zM414.203 257.306a.822.822 0 0 1-.58-1.403l4.7-4.712a.818.818 0 0 1 1.16 0c.32.321.32.841 0 1.162l-4.7 4.712a.817.817 0 0 1-.58.241z"/><path d="M423.605 257.306c-.21 0-.42-.08-.58-.241l-4.702-4.712a.823.823 0 0 1 0-1.162.818.818 0 0 1 1.16 0l4.701 4.712a.822.822 0 0 1-.58 1.403zM423.666 247.821a.823.823 0 0 1-.58-1.403l4.7-4.711a.818.818 0 0 1 1.16 0c.32.32.32.841 0 1.162l-4.7 4.712c-.161.16-.37.24-.58.24z"/><path d="M433.066 247.821c-.21 0-.42-.08-.58-.24l-4.7-4.712a.823.823 0 0 1 0-1.162.818.818 0 0 1 1.16 0l4.7 4.711a.823.823 0 0 1-.58 1.403zM103.829 265.29c-.21 0-.42-.08-.58-.24l-20.568-20.61a.823.823 0 0 1 0-1.162.818.818 0 0 1 1.16 0l20.568 20.61a.823.823 0 0 1-.58 1.403z"/><path d="M52.467 212.985c-.319 3.068-1.259 16.737 6.199 24.212 5.592 5.603 14.717 6.44 19.659 6.44 2.05 0 3.667-.137 4.501-.226.319-3.067 1.259-16.737-6.199-24.211-5.593-5.604-14.717-6.442-19.659-6.442-2.05 0-3.667.138-4.501.227zm25.858 32.297c-6.346 0-15.108-1.203-20.819-6.923-8.979-8.998-6.691-25.532-6.59-26.232a.821.821 0 0 1 .693-.695c.089-.012 2.212-.317 5.36-.317 6.345 0 15.107 1.2 20.818 6.922 8.979 8.998 6.691 25.532 6.59 26.231a.822.822 0 0 1-.693.696c-.089.013-2.212.318-5.359.318zM104.63 265.256c-.215 2.326-.612 10.574 3.936 15.132 3.53 3.538 9.326 4.066 12.467 4.066 1.135 0 2.063-.066 2.633-.12.215-2.326.612-10.576-3.936-15.134-3.53-3.536-9.323-4.065-12.463-4.065-1.137 0-2.065.066-2.637.12zm16.403 20.842c-4.146 0-9.876-.79-13.627-4.548-5.89-5.901-4.397-16.699-4.33-17.156a.822.822 0 0 1 .692-.695c.059-.009 1.449-.208 3.499-.208 4.145 0 9.872.789 13.623 4.547 5.89 5.903 4.396 16.7 4.33 17.158a.822.822 0 0 1-.693.695c-.058.008-1.445.207-3.494.207zM233.858 95.075a.82.82 0 0 1-.82-.822v-22.15a.82.82 0 1 1 1.64 0v22.15a.82.82 0 0 1-.82.822zM227.159 88.362a.82.82 0 0 1-.82-.822V66.05a.82.82 0 1 1 1.64 0V87.54a.82.82 0 0 1-.82.822zM240.83 88.362a.82.82 0 0 1-.82-.822V66.05a.82.82 0 1 1 1.64 0V87.54a.82.82 0 0 1-.82.822zM149.358 132.797a.82.82 0 0 1-.82-.822V101.25a.82.82 0 1 1 1.64 0v30.725a.82.82 0 0 1-.82.822z"/><path d="M191.056 143.784c-.21 0-.42-.08-.58-.24L71.727 24.55a.823.823 0 0 1 0-1.162.818.818 0 0 1 1.16 0l118.75 118.993a.823.823 0 0 1-.58 1.403z"/><path d="M201.754 123.24h-30.661a.82.82 0 0 1-.82-.823.82.82 0 0 1 .82-.822h30.66a.82.82 0 0 1 .82.822.82.82 0 0 1-.82.822zM11.089 189.648a.823.823 0 0 1-.58-1.403L175.803 22.612a.82.82 0 0 1 1.16 0c.32.322.32.842 0 1.163L11.668 189.407c-.16.16-.37.24-.58.24z"/><path d="M184.317 6.768c-5.163 0-9.362 4.209-9.362 9.381 0 5.173 4.2 9.381 9.362 9.381 5.163 0 9.362-4.208 9.362-9.38 0-5.173-4.2-9.382-9.362-9.382zm0 20.406c-6.067 0-11.002-4.945-11.002-11.025s4.935-11.024 11.002-11.024c6.067 0 11.002 4.945 11.002 11.024 0 6.08-4.935 11.025-11.002 11.025zM140.211 59.722c.583.055 1.536.124 2.707.124 3.208 0 9.13-.54 12.738-4.156 4.657-4.666 4.242-13.119 4.023-15.477a29.03 29.03 0 0 0-2.71-.124c-3.208 0-9.127.54-12.736 4.155-4.657 4.667-4.241 13.12-4.022 15.478zm2.707 1.768c-2.091 0-3.508-.204-3.568-.213a.82.82 0 0 1-.692-.693c-.069-.467-1.591-11.482 4.415-17.502 3.826-3.833 9.669-4.637 13.896-4.637 2.093 0 3.511.204 3.57.212a.82.82 0 0 1 .693.695c.068.466 1.591 11.48-4.416 17.5-3.825 3.834-9.67 4.638-13.898 4.638zM80.266 89.561c1.51 1.825 7.179 8.093 13.764 8.093 6.598 0 12.258-6.268 13.765-8.092-1.509-1.824-7.18-8.094-13.765-8.094-6.585 0-12.254 6.268-13.764 8.093zm13.764 9.738c-8.496 0-15.19-8.87-15.472-9.247a.822.822 0 0 1 0-.982c.281-.378 6.976-9.245 15.472-9.245 8.497 0 15.191 8.867 15.472 9.245a.822.822 0 0 1 0 .982c-.28.378-6.975 9.247-15.472 9.247z"/><path d="M109.267 91.556c-1.819 1.512-8.078 7.193-8.078 13.793 0 6.611 6.256 12.283 8.076 13.793 1.82-1.512 8.078-7.193 8.078-13.793 0-6.611-6.256-12.283-8.076-13.793zm-.001 29.46a.823.823 0 0 1-.49-.163c-.376-.282-9.226-6.99-9.226-15.504 0-8.513 8.85-15.222 9.226-15.504a.821.821 0 0 1 .98 0c.377.282 9.227 6.99 9.227 15.504 0 8.513-8.85 15.222-9.227 15.504a.824.824 0 0 1-.49.163zM191.877 143.554c-.157 1.906-.332 7.68 2.878 10.896 2.569 2.575 6.81 2.959 9.11 2.959.728 0 1.34-.037 1.763-.073.157-1.905.332-7.68-2.878-10.897-2.568-2.573-6.81-2.957-9.109-2.957-.73 0-1.341.037-1.764.072zm11.988 15.499c-3.12 0-7.433-.598-10.27-3.44-4.45-4.459-3.326-12.58-3.275-12.924a.822.822 0 0 1 .692-.695c.044-.006 1.091-.156 2.63-.156 3.118 0 7.43.596 10.267 3.439 4.45 4.46 3.327 12.581 3.277 12.925a.822.822 0 0 1-.693.695c-.044.006-1.09.156-2.628.156zM56.193 7.738c-.184 2.096-.451 8.943 3.34 12.741 2.987 2.994 7.904 3.441 10.57 3.441.904 0 1.655-.05 2.145-.094.183-2.097.452-8.943-3.339-12.742-2.988-2.994-7.905-3.44-10.57-3.44-.905 0-1.656.05-2.146.094zm13.91 17.826c-3.566 0-8.495-.68-11.73-3.923-5.077-5.086-3.793-14.374-3.736-14.767a.82.82 0 0 1 .693-.695c.05-.007 1.247-.18 3.008-.18 3.566 0 8.495.681 11.73 3.923 5.078 5.087 3.794 14.375 3.736 14.768a.82.82 0 0 1-.693.694c-.05.007-1.247.18-3.008.18zM78.464 122.005c-1.82 1.512-8.078 7.193-8.078 13.794 0 6.61 6.256 12.283 8.077 13.793 1.819-1.512 8.077-7.194 8.077-13.793 0-6.612-6.256-12.284-8.076-13.794zm0 29.46a.821.821 0 0 1-.49-.162c-.378-.282-9.228-6.99-9.228-15.504s8.85-15.223 9.227-15.505a.82.82 0 0 1 .98 0c.377.282 9.227 6.991 9.227 15.505 0 8.513-8.85 15.222-9.227 15.504a.821.821 0 0 1-.49.162z"/><path d="M49.557 120.333c1.51 1.824 7.18 8.093 13.765 8.093 6.584 0 12.255-6.269 13.765-8.093-1.51-1.825-7.18-8.094-13.765-8.094-6.586 0-12.255 6.27-13.765 8.094zm13.765 9.737c-8.497 0-15.191-8.869-15.472-9.246a.823.823 0 0 1 0-.983c.28-.377 6.975-9.246 15.472-9.246 8.495 0 15.19 8.869 15.472 9.246a.823.823 0 0 1 0 .983c-.281.378-6.977 9.246-15.472 9.246zM11.878 188.526c.43.017 1.045.036 1.806.036 5.284 0 18.455-.883 26.61-9.052 9.216-9.236 9.138-24.957 8.996-28.476a43.921 43.921 0 0 0-1.806-.037c-5.284 0-18.455.883-26.61 9.054-9.216 9.236-9.138 24.955-8.996 28.475zm1.807 1.68c-1.662 0-2.653-.083-2.653-.083a.82.82 0 0 1-.75-.752c-.065-.793-1.47-19.556 9.433-30.482 8.589-8.606 22.28-9.536 27.769-9.536 1.661 0 2.652.083 2.652.083.4.033.717.352.75.752.065.793 1.47 19.558-9.433 30.484-8.588 8.605-22.28 9.534-27.768 9.534zM90.289 42.533a.815.815 0 0 1-.587-.248c-8.786-9.026-8.786-23.712 0-32.739 3.44-3.534 8.017-5.482 12.886-5.482 4.87 0 9.446 1.948 12.886 5.482 5.733 5.89 5.733 15.475 0 21.366-2.258 2.32-5.262 3.598-8.458 3.598-3.196 0-6.2-1.278-8.459-3.598-3.808-3.914-2.358-9.498-.512-11.395 1.394-1.431 3.174-2.252 4.882-2.252 1.532 0 2.987.66 4.205 1.913a.823.823 0 0 1-.014 1.162.816.816 0 0 1-1.16-.014c-.916-.94-1.935-1.418-3.03-1.418-1.252 0-2.638.657-3.71 1.758-1.149 1.18-2.73 5.766.513 9.099 1.947 2 4.534 3.101 7.285 3.101 2.75 0 5.338-1.1 7.285-3.101 5.116-5.259 5.116-13.813 0-19.07-3.13-3.216-7.29-4.987-11.713-4.987-4.423 0-8.583 1.77-11.712 4.987-8.169 8.392-8.169 22.049 0 30.442a.823.823 0 0 1-.587 1.396z"/><path d="M68.64 71.122c-3.86 0-7.72-1.42-10.658-4.263-3.53-3.414-5.474-7.956-5.474-12.788 0-4.833 1.943-9.374 5.474-12.789 9.007-8.713 23.66-8.711 32.664 0a.823.823 0 0 1 .02 1.163.817.817 0 0 1-1.158.02c-8.377-8.102-22.01-8.104-30.387 0-3.207 3.102-4.973 7.223-4.973 11.606 0 4.382 1.766 8.504 4.973 11.606 5.248 5.077 13.79 5.079 19.037 0 1.995-1.93 3.092-4.492 3.092-7.215 0-2.724-1.097-5.286-3.092-7.215-3.33-3.22-7.906-1.647-9.087-.508-1.096 1.06-1.75 2.432-1.75 3.669 0 1.08.475 2.089 1.412 2.995a.824.824 0 0 1 .02 1.162.818.818 0 0 1-1.159.021c-1.252-1.21-1.914-2.655-1.914-4.178 0-1.7.822-3.468 2.253-4.852 1.89-1.828 7.46-3.268 11.364.508 2.317 2.241 3.593 5.224 3.593 8.398 0 3.173-1.276 6.157-3.593 8.397-2.938 2.842-6.799 4.263-10.657 4.263zM39.767 159.805H28.853a.82.82 0 0 1-.82-.821.82.82 0 0 1 .82-.822h10.914a.82.82 0 0 1 .82.822.82.82 0 0 1-.82.821z"/><path d="M40.235 171.316a.82.82 0 0 1-.82-.822v-10.937a.82.82 0 1 1 1.64 0v10.937a.82.82 0 0 1-.82.822zM33.652 177.912a.82.82 0 0 1-.82-.821v-10.938a.82.82 0 1 1 1.64 0v10.938a.82.82 0 0 1-.82.821zM26.03 184.11a.82.82 0 0 1-.821-.823v-9.496a.82.82 0 1 1 1.64 0v9.496a.82.82 0 0 1-.82.822z"/><path d="M33.01 166.575H22.096a.82.82 0 0 1-.82-.822.82.82 0 0 1 .82-.822H33.01a.82.82 0 0 1 .82.822.82.82 0 0 1-.82.822zM25.995 173.607H16.69a.82.82 0 0 1-.82-.822.82.82 0 0 1 .82-.822h9.304a.82.82 0 0 1 .82.822.82.82 0 0 1-.82.822zM206.964 118.44a3.978 3.978 0 0 0 0 7.954 3.978 3.978 0 0 0 0-7.955zm0 9.599c-3.093 0-5.61-2.523-5.61-5.622 0-3.1 2.517-5.622 5.61-5.622 3.093 0 5.61 2.522 5.61 5.622s-2.517 5.622-5.61 5.622zM170.788 154.268a.82.82 0 0 1-.82-.821v-30.724a.82.82 0 1 1 1.64 0v30.724a.82.82 0 0 1-.82.821z"/><path d="M170.788 154.69a3.979 3.979 0 0 0 0 7.956 3.979 3.979 0 0 0 0-7.957zm0 9.6c-3.093 0-5.61-2.523-5.61-5.622 0-3.1 2.517-5.623 5.61-5.623 3.093 0 5.61 2.522 5.61 5.623 0 3.099-2.517 5.621-5.61 5.621zM180.325 101.767h-30.661a.82.82 0 0 1-.82-.823.82.82 0 0 1 .82-.821h30.66a.82.82 0 0 1 .821.821.82.82 0 0 1-.82.823z"/><path d="M185.535 96.967a3.978 3.978 0 0 0 0 7.956 3.978 3.978 0 0 0 0-7.956zm0 9.6c-3.093 0-5.61-2.522-5.61-5.623 0-3.098 2.517-5.62 5.61-5.62 3.094 0 5.61 2.522 5.61 5.62 0 3.1-2.516 5.623-5.61 5.623zM149.358 133.218a3.977 3.977 0 0 0 0 7.955 3.977 3.977 0 0 0 0-7.955zm0 9.598c-3.093 0-5.61-2.522-5.61-5.62 0-3.1 2.517-5.623 5.61-5.623 3.094 0 5.61 2.523 5.61 5.623 0 3.098-2.516 5.62-5.61 5.62zM240.188 66.663h-12.96a.82.82 0 0 1-.82-.822.82.82 0 0 1 .82-.822h12.96a.82.82 0 0 1 .82.822.82.82 0 0 1-.82.822zM233.877 95.233a.815.815 0 0 1-.581-.244l-6.63-6.701a.822.822 0 0 1 .005-1.162.818.818 0 0 1 1.16.005l6.051 6.118 6.163-6.123a.818.818 0 0 1 1.16.005.822.822 0 0 1-.005 1.162l-6.745 6.701a.816.816 0 0 1-.578.239z"/><path d="M233.877 73.445a.815.815 0 0 1-.581-.244l-6.63-6.7a.823.823 0 0 1 .005-1.163.817.817 0 0 1 1.16.005l6.051 6.118 6.163-6.123a.818.818 0 0 1 1.16.005.824.824 0 0 1-.005 1.163l-6.745 6.7a.816.816 0 0 1-.578.239zM67.128 193.626a.82.82 0 0 1-.612-.275l-6.699-7.536a.82.82 0 0 1-.208-.547v-12.536a.82.82 0 1 1 1.64 0v12.223l5.059 5.691v-11.862a.82.82 0 1 1 1.64 0v14.02a.82.82 0 0 1-.82.822z"/><path d="M67.128 193.296a.823.823 0 0 1-.589-1.393l6.74-6.967v-12.204a.82.82 0 1 1 1.641 0v12.536a.82.82 0 0 1-.232.572l-6.972 7.206a.815.815 0 0 1-.588.25z"/><path d="M73.459 173.343h-12.96a.82.82 0 0 1-.821-.821.82.82 0 0 1 .82-.822h12.96a.82.82 0 0 1 .82.822.82.82 0 0 1-.82.821z"/><path d="M67.148 180.126a.821.821 0 0 1-.582-.242l-6.63-6.701a.824.824 0 0 1 .006-1.164.818.818 0 0 1 1.16.005l6.05 6.118 6.164-6.123a.818.818 0 0 1 1.16.007.823.823 0 0 1-.005 1.162l-6.746 6.7a.815.815 0 0 1-.577.238zM510.443 193.626a.819.819 0 0 1-.611-.275l-6.699-7.536a.82.82 0 0 1-.208-.547v-12.536a.82.82 0 1 1 1.64 0v12.223l5.059 5.691v-11.862a.82.82 0 1 1 1.64 0v14.02a.82.82 0 0 1-.82.822z"/><path d="M510.443 193.296a.817.817 0 0 1-.57-.23.825.825 0 0 1-.019-1.163l6.743-6.969v-12.202a.82.82 0 1 1 1.64 0v12.536a.822.822 0 0 1-.231.572l-6.973 7.206a.816.816 0 0 1-.59.25z"/><path d="M516.774 173.343h-12.96a.82.82 0 0 1-.82-.821.82.82 0 0 1 .82-.822h12.96a.82.82 0 0 1 .82.822.82.82 0 0 1-.82.821z"/><path d="M510.465 180.126a.826.826 0 0 1-.584-.242l-6.63-6.701a.826.826 0 0 1 .005-1.164.823.823 0 0 1 1.161.005l6.052 6.118 6.164-6.123a.82.82 0 1 1 1.153 1.169l-6.745 6.7a.812.812 0 0 1-.576.238zM76.861 238.525c-.21 0-.42-.08-.58-.241-2.234-2.24-14.28-2.673-16.945 0a.818.818 0 0 1-1.16 0 .822.822 0 0 1 0-1.162c3.062-3.067 16.205-3.07 19.265 0a.822.822 0 0 1-.58 1.403z"/><path d="M76.386 237.84c-.21 0-.42-.08-.58-.24-1.658-1.662-2.279-6.025-2.308-9.552-.013-1.732.112-7.552 2.308-9.751.32-.32.84-.32 1.16 0 .32.321.32.841 0 1.162-1.125 1.127-1.86 4.573-1.828 8.575.032 3.9.784 7.357 1.828 8.404a.822.822 0 0 1-.58 1.403zM67.244 228.886c-.21 0-.42-.08-.58-.24-1.702-1.704-11.288-2.028-13.311 0-.32.32-.84.32-1.16 0a.823.823 0 0 1 0-1.163c2.556-2.562 13.072-2.562 15.63 0a.823.823 0 0 1-.58 1.403z"/><path d="M66.864 228.34c-.21 0-.42-.08-.58-.24-1.36-1.364-1.87-4.899-1.893-7.751-.01-1.4.092-6.107 1.893-7.911a.818.818 0 0 1 1.16 0c.32.32.32.84 0 1.162-.87.872-1.438 3.578-1.413 6.736.025 3.03.619 5.805 1.413 6.601a.823.823 0 0 1-.58 1.403zM88.417 190.154a.822.822 0 0 1-.58-1.403l21.223-21.266a.819.819 0 0 1 1.159 0c.32.322.32.842 0 1.163l-21.223 21.264a.816.816 0 0 1-.58.242zM113.675 199.96c.476 4.696 4.469 8.39 9.263 8.39 4.792 0 8.786-3.694 9.262-8.39h-18.525zm9.263 10.034c-5.967 0-10.88-4.866-10.95-10.847a.82.82 0 0 1 .82-.832h20.26a.819.819 0 0 1 .82.832c-.071 5.981-4.984 10.847-10.95 10.847z"/><path d="M111.255 167.718l10.994 9.064v-19.507l-10.994 10.443zm11.78 11.61a.75.75 0 0 1-.487-.171l-13.051-10.761a.82.82 0 0 1-.043-1.231l13.051-12.397a.82.82 0 0 1 1.384.597v23.104a.858.858 0 0 1-.47.77.88.88 0 0 1-.384.09z"/><path d="M123.89 157.348v19.373l10.353-9.001-10.354-10.372zm-.821 21.997a.822.822 0 0 1-.82-.822v-23.105c0-.332.2-.658.506-.785.305-.128.659-.083.894.15l12.377 12.398a.821.821 0 0 1-.043 1.202l-12.377 10.76a.821.821 0 0 1-.537.202zM85.847 189.086a2.466 2.466 0 0 0 0 4.932 2.467 2.467 0 0 0 0-4.932zm0 6.575a4.11 4.11 0 0 1-4.101-4.11 4.11 4.11 0 0 1 4.1-4.109 4.11 4.11 0 0 1 0 8.22z"/><path d="M155.863 189.99a.82.82 0 0 1-.592-.252l-20.357-21.268a.822.822 0 0 1 .024-1.161.815.815 0 0 1 1.159.024l20.358 21.265a.825.825 0 0 1-.592 1.392z"/><path d="M158.328 188.756c-1.283 0-2.326 1.107-2.326 2.466 0 1.36 1.043 2.466 2.326 2.466 1.284 0 2.328-1.106 2.328-2.466s-1.044-2.466-2.328-2.466zm0 6.576c-2.188 0-3.967-1.843-3.967-4.11 0-2.266 1.78-4.11 3.967-4.11 2.188 0 3.968 1.844 3.968 4.11 0 2.267-1.78 4.11-3.968 4.11zM122.705 133.164a2.467 2.467 0 0 0 0 4.932 2.466 2.466 0 0 0 0-4.932zm0 6.576a4.11 4.11 0 0 1 0-8.22c2.261 0 4.1 1.843 4.1 4.11a4.109 4.109 0 0 1-4.1 4.11z"/><path d="M122.964 198.92a.82.82 0 0 1-.82-.822v-59.042a.82.82 0 1 1 1.64 0v59.042a.82.82 0 0 1-.82.822zM168.531 276.265c-.21 0-.42-.08-.58-.24l-4.702-4.712a.823.823 0 0 1 0-1.163c.32-.32.84-.32 1.159 0l4.703 4.712a.822.822 0 0 1-.58 1.403zM204.32 207.827a.822.822 0 0 1-.58-1.403l26.278-26.331a.818.818 0 0 1 1.16 0c.32.32.32.84 0 1.162l-26.278 26.33a.817.817 0 0 1-.58.242zM160.845 251.39a.823.823 0 0 1-.58-1.403l26.279-26.331a.819.819 0 0 1 1.159 0c.32.32.32.84 0 1.162l-26.278 26.331c-.16.16-.37.24-.58.24zM198.426 184.593a3.66 3.66 0 0 0-2.609 1.082 3.676 3.676 0 0 0-1.08 2.613c0 .987.384 1.915 1.08 2.613 1.393 1.397 3.825 1.397 5.218 0a3.676 3.676 0 0 0 1.08-2.613c0-.987-.383-1.915-1.08-2.613a3.66 3.66 0 0 0-2.609-1.082zm0 9.034a5.29 5.29 0 0 1-3.768-1.563 5.308 5.308 0 0 1-1.56-3.776c0-1.427.554-2.767 1.56-3.776 2.013-2.016 5.524-2.016 7.536 0a5.309 5.309 0 0 1 1.561 3.776 5.308 5.308 0 0 1-1.56 3.776 5.29 5.29 0 0 1-3.769 1.563z"/><path d="M223.727 170.932l16.59 16.627c3.913-4.627 3.686-11.623-.653-15.97a11.681 11.681 0 0 0-8.321-3.453c-2.816 0-5.49.987-7.616 2.796zm16.619 18.638a.82.82 0 0 1-.58-.24l-17.806-17.844a.82.82 0 0 1 .007-1.169 13.333 13.333 0 0 1 9.376-3.825c3.58 0 6.947 1.397 9.48 3.934 5.168 5.178 5.218 13.654.11 18.897a.821.821 0 0 1-.582.247h-.005zM178.561 212.896l19.88 19.92 5.685-25.617-25.565 5.697zm20.33 22.25c-.243 0-.513-.068-.66-.215l-21.779-21.824a.823.823 0 0 1-.22-.763c.07-.31.343-.69.653-.76l28.143-6.27a.823.823 0 0 1 .979.98l-6.259 28.203a.822.822 0 0 1-.623.624c-.07.016-.151.024-.235.024zM223.361 188.692h-20.27a.82.82 0 1 1 0-1.644h20.27a.82.82 0 0 1 .82.823.82.82 0 0 1-.82.821zM222.965 209.188c-.985 0-1.91.383-2.605 1.08a3.668 3.668 0 0 0-1.077 2.614c.001.99.387 1.92 1.087 2.622 1.397 1.398 3.83 1.406 5.226.01a3.714 3.714 0 0 0-.01-5.238 3.682 3.682 0 0 0-2.62-1.088zm.027 9.048a5.305 5.305 0 0 1-3.781-1.57 5.33 5.33 0 0 1-1.568-3.78 5.303 5.303 0 0 1 1.558-3.781c2.014-2.018 5.529-2.012 7.546.01 2.081 2.084 2.085 5.477.008 7.56a5.28 5.28 0 0 1-3.763 1.561z"/><path d="M223.389 209.03a.821.821 0 0 1-.82-.82l-.028-20.338a.82.82 0 0 1 .819-.823h.001c.452 0 .82.367.82.82l.028 20.338a.82.82 0 0 1-.82.824zM176.623 268.283a.815.815 0 0 1-.591-.253l-32.565-34.02a.822.822 0 0 1 .024-1.16.814.814 0 0 1 1.16.024l32.564 34.019a.822.822 0 0 1-.592 1.39zM163.828 271.553a.823.823 0 0 1-.58-1.403l4.704-4.711a.818.818 0 0 1 1.159 0c.32.321.32.841 0 1.162l-4.703 4.712c-.16.16-.37.24-.58.24z"/><path d="M168.531 276.265a.822.822 0 0 1-.58-1.403l7.984-8a.818.818 0 0 1 1.159 0c.32.322.32.842 0 1.163l-7.983 8a.816.816 0 0 1-.58.24zM168.48 266.79c-.21 0-.42-.08-.58-.24l-4.702-4.712a.823.823 0 0 1 0-1.162.818.818 0 0 1 1.16 0l4.701 4.711a.823.823 0 0 1-.58 1.403z"/><path d="M159.075 266.79a.823.823 0 0 1-.58-1.403l4.703-4.711a.818.818 0 0 1 1.16 0c.32.32.32.84 0 1.162l-4.703 4.712c-.16.16-.37.24-.58.24z"/><path d="M159.065 266.78c-.21 0-.42-.08-.58-.24l-4.702-4.712a.823.823 0 0 1 0-1.162.818.818 0 0 1 1.16 0l4.702 4.711a.823.823 0 0 1-.58 1.404z"/><path d="M154.363 262.07a.823.823 0 0 1-.58-1.403l4.702-4.713a.82.82 0 0 1 1.16 0c.32.321.32.841 0 1.162l-4.702 4.712c-.16.16-.37.241-.58.241zM149.6 257.296c-.21 0-.42-.08-.58-.24l-4.703-4.712a.822.822 0 0 1 0-1.162.818.818 0 0 1 1.16 0l4.702 4.711a.823.823 0 0 1-.58 1.403z"/><path d="M144.897 252.584a.822.822 0 0 1-.58-1.403l4.703-4.711a.818.818 0 0 1 1.16 0c.32.32.32.841 0 1.162l-4.704 4.712c-.16.16-.37.24-.58.24zM140.073 247.75c-.21 0-.42-.08-.58-.24l-4.702-4.712a.822.822 0 0 1 0-1.162.818.818 0 0 1 1.16 0l4.702 4.711a.823.823 0 0 1-.58 1.404z"/><path d="M135.37 243.04a.822.822 0 0 1-.58-1.403l8.805-8.824a.818.818 0 0 1 1.16 0c.32.32.32.841 0 1.162l-8.805 8.823a.816.816 0 0 1-.58.241zM159.015 257.306c-.21 0-.42-.08-.58-.241l-4.703-4.712a.823.823 0 0 1 0-1.162.818.818 0 0 1 1.16 0l4.702 4.712a.822.822 0 0 1-.58 1.403z"/><path d="M149.61 257.306a.822.822 0 0 1-.58-1.403l4.702-4.712a.818.818 0 0 1 1.16 0c.32.321.32.841 0 1.162l-4.703 4.712a.816.816 0 0 1-.58.241zM149.55 247.821c-.21 0-.42-.08-.58-.24l-4.703-4.712a.822.822 0 0 1 0-1.162.818.818 0 0 1 1.16 0l4.702 4.711a.823.823 0 0 1-.58 1.403z"/><path d="M140.144 247.821a.823.823 0 0 1-.58-1.403l4.703-4.711a.818.818 0 0 1 1.16 0c.32.32.32.841 0 1.162l-4.702 4.712c-.16.16-.37.24-.58.24zM197.569 77.568c-2.768 0-5.159-.973-6.92-2.818-1.884-1.969-2.78-4.718-2.691-6.414.052-.993.033-2.61.018-3.909l-.006-.613c-1.021.003-2.824.009-4.396.009-2.448 0-9.17-2.308-9.17-9.737 0-5.184 3.986-9.244 9.075-9.244 4.24 0 7.688 3.391 7.688 7.56 0 3.425-2.78 6.212-6.197 6.212-2.89 0-4.401-2.644-4.401-4.062 0-1.755 1.066-3.644 3.409-3.644a.82.82 0 0 1 .82.822.82.82 0 0 1-.82.822c-1.684 0-1.77 1.666-1.77 2 0 .583.832 2.417 2.762 2.417a4.567 4.567 0 0 0 4.557-4.567c0-3.207-2.77-5.916-6.048-5.916-4.17 0-7.435 3.338-7.435 7.6 0 6.175 5.52 8.093 7.53 8.093 2.346 0 5.206-.012 5.207-.012.179.002.427.085.582.239a.825.825 0 0 1 .24.583l.013 1.42c.015 1.322.033 2.968-.02 4.012-.054 1.046.504 3.38 2.235 5.191 1.488 1.557 3.469 2.307 5.836 2.31 4.306-.04 7.711-3.39 7.75-7.622a6.118 6.118 0 0 0-1.772-4.351c-1.113-1.115-2.59-1.68-4.118-1.706-2.551.025-4.646 2.125-4.67 4.682a2.64 2.64 0 0 0 .791 1.954c.595.596 1.351.798 1.608.809.34-.003 2.04-.107 2.057-1.835a.82.82 0 0 1 .82-.814h.008a.822.822 0 0 1 .812.83c-.023 2.355-1.924 3.445-3.68 3.463-.889.032-1.994-.498-2.784-1.29a4.287 4.287 0 0 1-1.272-3.133c.033-3.446 2.856-6.277 6.293-6.31 1.996-.037 3.868.757 5.294 2.188a7.768 7.768 0 0 1 2.254 5.529c-.049 5.137-4.167 9.2-9.375 9.25l-.114.002zM236.167 13.446a2.02 2.02 0 0 0-1.44.597 2.049 2.049 0 0 0 0 2.887c.769.77 2.111.77 2.88 0a2.049 2.049 0 0 0 0-2.887 2.02 2.02 0 0 0-1.44-.597zm0 5.725a3.646 3.646 0 0 1-2.599-1.08 3.696 3.696 0 0 1 0-5.21c1.388-1.392 3.81-1.392 5.198 0a3.696 3.696 0 0 1 0 5.21 3.647 3.647 0 0 1-2.6 1.08z"/><path d="M204.266 48.534a.822.822 0 0 1-.58-1.403l29.827-29.9a.818.818 0 0 1 1.16 0c.32.32.32.84 0 1.162l-29.828 29.9a.816.816 0 0 1-.58.24zM196.638 62.499a.815.815 0 0 1-.59-.252l-6.701-6.985a.824.824 0 0 1 .022-1.163.818.818 0 0 1 1.16.022l6.7 6.985a.824.824 0 0 1-.591 1.393z"/><path d="M192.145 55.695l3.793 3.803 2.197-2.202c-.782-.36-1.762-.915-2.405-1.65-.523-.6-1.027-1.514-1.385-2.239l-2.2 2.288zm3.793 5.787a.817.817 0 0 1-.58-.24l-4.942-4.956a.822.822 0 0 1-.01-1.151l3.593-3.736a.82.82 0 0 1 1.348.257c.23.556.967 2.162 1.617 2.907.718.82 2.325 1.466 2.884 1.646a.821.821 0 0 1 .33 1.364l-3.66 3.668a.817.817 0 0 1-.58.241zM206.827 55.488a.823.823 0 0 1-.58-1.403c.455-.455.761-1.027.84-1.567.04-.265.057-.76-.275-1.091-.33-.332-.823-.315-1.088-.276-.539.08-1.109.387-1.563.842-.32.32-.84.32-1.16 0a.823.823 0 0 1 0-1.162c.708-.71 1.59-1.174 2.483-1.306.962-.146 1.875.126 2.488.74.612.614.882 1.523.738 2.494-.132.895-.595 1.778-1.303 2.488-.16.16-.37.24-.58.24z"/><path d="M203.51 52.163a.823.823 0 0 1-.58-1.403c.455-.455.762-1.027.841-1.567.04-.265.056-.76-.275-1.09-.332-.334-.824-.315-1.089-.277-.539.08-1.108.387-1.563.842a.819.819 0 0 1-1.159 0 .823.823 0 0 1 0-1.162c.708-.71 1.59-1.174 2.482-1.306.962-.146 1.875.125 2.488.74.613.614.883 1.523.738 2.494-.132.895-.595 1.779-1.303 2.489-.16.16-.37.24-.58.24z"/><path d="M200.406 49.05a.822.822 0 0 1-.58-1.403c.872-.873 1.13-2.09.565-2.657-.561-.563-1.769-.296-2.64.578a.82.82 0 0 1-1.16 0 .824.824 0 0 1 0-1.163c1.553-1.555 3.73-1.807 4.96-.577 1.215 1.217.961 3.452-.565 4.981a.817.817 0 0 1-.58.241z"/><path d="M201.292 57.96c-1.935 0-3.83-.709-5.258-2.142-2.985-2.992-2.837-8.01.332-11.186a.818.818 0 0 1 1.16 0c.32.32.32.841 0 1.162-2.53 2.535-2.678 6.51-.333 8.862 2.339 2.345 6.3 2.19 8.83-.345a.818.818 0 0 1 1.158 0c.32.321.32.841 0 1.163-1.648 1.652-3.793 2.487-5.89 2.487zM223.175 21.146l7.592 7.611 1.991-1.996-7.592-7.611-1.99 1.996zm7.592 9.595a.818.818 0 0 1-.58-.24l-8.751-8.774a.822.822 0 0 1 0-1.162l3.15-3.158a.842.842 0 0 1 1.16 0l8.751 8.773c.32.32.32.84 0 1.162l-3.15 3.159a.82.82 0 0 1-.58.24zM374.442 77.568l-.114-.002c-5.17-.05-9.258-4.113-9.308-9.25a7.798 7.798 0 0 1 2.259-5.55c1.412-1.416 3.225-2.182 5.236-2.167 3.414.033 6.217 2.864 6.25 6.31a4.296 4.296 0 0 1-1.274 3.143c-.785.786-1.806 1.326-2.756 1.28-1.747-.018-3.637-1.109-3.658-3.464a.822.822 0 0 1 .812-.829h.008c.45 0 .815.363.82.815.016 1.727 1.697 1.83 2.034 1.834.243.022.994-.213 1.579-.799a2.678 2.678 0 0 0 .794-1.964c-.022-2.558-2.098-4.657-4.625-4.682-1.508-.02-2.962.584-4.061 1.687a6.136 6.136 0 0 0-1.778 4.37c.04 4.233 3.416 7.582 7.684 7.623 2.318.012 4.287-.746 5.759-2.283 1.734-1.814 2.296-4.164 2.242-5.219-.055-1.043-.035-2.686-.019-4.006l.011-1.426c0-.219.086-.428.242-.583.155-.154.421-.254.581-.239 0 0 2.838.012 5.165.012 1.994 0 7.464-1.918 7.464-8.093 0-4.262-3.236-7.6-7.37-7.6-3.25 0-5.994 2.709-5.994 5.916 0 2.519 2.026 4.567 4.515 4.567 1.91 0 2.733-1.834 2.733-2.417 0-.334-.085-2-1.749-2a.82.82 0 0 1-.82-.822.82.82 0 0 1 .82-.822c2.329 0 3.39 1.889 3.39 3.644 0 1.418-1.503 4.062-4.374 4.062-3.394 0-6.155-2.787-6.155-6.212 0-4.169 3.424-7.56 7.634-7.56 5.053 0 9.01 4.06 9.01 9.244 0 7.43-6.673 9.737-9.104 9.737-1.557 0-3.339-.006-4.353-.009l-.008.62c-.014 1.297-.032 2.91.018 3.902.088 1.71-.81 4.47-2.695 6.442-1.748 1.826-4.113 2.79-6.845 2.79zM336.15 13.446a1.99 1.99 0 0 0-1.422.595 2.063 2.063 0 0 0 0 2.89c.762.768 2.084.768 2.84 0 .79-.796.79-2.093.002-2.89a1.984 1.984 0 0 0-1.42-.595zm0 5.725a3.61 3.61 0 0 1-2.585-1.082 3.71 3.71 0 0 1 0-5.206c1.38-1.395 3.789-1.395 5.17 0a3.712 3.712 0 0 1-.002 5.206 3.605 3.605 0 0 1-2.584 1.082z"/><path d="M367.797 48.534a.812.812 0 0 1-.58-.244l-29.593-29.9a.822.822 0 0 1 .004-1.162.818.818 0 0 1 1.159.005l29.592 29.9a.823.823 0 0 1-.582 1.4zM375.364 62.499a.821.821 0 0 1-.592-1.39l6.647-6.985a.817.817 0 0 1 1.158-.027.822.822 0 0 1 .027 1.162l-6.647 6.985a.813.813 0 0 1-.593.255z"/><path d="M373.883 57.295l2.176 2.198 3.757-3.798-2.175-2.28c-.355.723-.853 1.632-1.369 2.228-.639.737-1.612 1.292-2.39 1.652zm2.176 4.187a.818.818 0 0 1-.581-.243l-3.632-3.669a.823.823 0 0 1 .33-1.361c.554-.179 2.147-.824 2.858-1.644.644-.744 1.376-2.35 1.604-2.907a.82.82 0 0 1 1.351-.257l3.565 3.736a.824.824 0 0 1-.01 1.147l-4.902 4.955a.823.823 0 0 1-.583.243zM365.256 55.488a.814.814 0 0 1-.582-.243c-1.538-1.554-1.785-3.74-.56-4.978 1.17-1.189 3.472-.921 4.944.566a.823.823 0 0 1-.007 1.162.818.818 0 0 1-1.159-.005c-.532-.539-1.211-.86-1.813-.86-.232 0-.56.05-.8.295-.564.568-.307 1.787.558 2.662a.823.823 0 0 1-.58 1.4z"/><path d="M368.545 52.163a.818.818 0 0 1-.582-.243c-1.538-1.555-1.783-3.742-.56-4.978.498-.504 1.197-.78 1.967-.78h.002c1.046 0 2.13.49 2.977 1.347a.823.823 0 0 1-.007 1.162.82.82 0 0 1-1.159-.005c-.532-.539-1.21-.86-1.811-.86h-.002c-.234 0-.562.05-.804.294-.56.568-.304 1.787.562 2.663a.823.823 0 0 1-.583 1.4z"/><path d="M371.626 49.05a.812.812 0 0 1-.58-.243c-1.54-1.554-1.786-3.74-.561-4.977.495-.501 1.188-.777 1.95-.777h.002c1.042 0 2.128.495 2.98 1.355a.823.823 0 0 1-.006 1.162.818.818 0 0 1-1.16-.005c-.536-.543-1.215-.868-1.814-.868h-.002c-.227 0-.549.05-.788.29-.562.569-.304 1.788.56 2.663a.823.823 0 0 1-.58 1.4z"/><path d="M370.747 57.965c-2.15 0-4.282-.908-5.85-2.494a.823.823 0 0 1 .003-1.162.819.819 0 0 1 1.16.004c2.41 2.435 6.516 2.6 8.747.346 2.329-2.354 2.18-6.33-.33-8.868a.822.822 0 0 1 .004-1.161.818.818 0 0 1 1.159.004c3.144 3.174 3.29 8.19.33 11.182-1.371 1.386-3.225 2.148-5.223 2.149zM339.535 26.76l1.97 1.992 7.528-7.606-1.97-1.992-7.528 7.607zm1.97 3.981a.821.821 0 0 1-.583-.243l-3.125-3.158a.825.825 0 0 1 0-1.158l8.683-8.773a.84.84 0 0 1 1.163 0l3.126 3.158a.82.82 0 0 1 0 1.158l-8.683 8.773a.817.817 0 0 1-.581.243zM23.69 67.355a2.466 2.466 0 0 0 0 4.932 2.466 2.466 0 0 0 0-4.932zm0 6.575a4.11 4.11 0 0 1 0-8.219 4.11 4.11 0 0 1 0 8.22zM4.336 76.752a.821.821 0 0 1-.553-1.428l19.48-17.877a.821.821 0 0 1 1.107 1.212L4.89 76.536a.817.817 0 0 1-.554.216z"/><path d="M23.816 82.204a.816.816 0 0 1-.553-.216L3.783 64.11A.821.821 0 0 1 4.889 62.9l19.48 17.877a.822.822 0 0 1-.553 1.428zM42.218 76.752a.813.813 0 0 1-.574-.235L23.43 58.641a.824.824 0 0 1-.012-1.162.819.819 0 0 1 1.159-.014l18.214 17.877a.824.824 0 0 1-.573 1.41z"/><path d="M24.004 82.204a.824.824 0 0 1-.574-1.41l18.214-17.877a.82.82 0 1 1 1.147 1.175L24.577 81.97a.816.816 0 0 1-.573.235zM110.851 248.237a.812.812 0 0 1-.54-.204L95.22 234.805a.82.82 0 0 1-.014-1.225l11.047-10.138a.818.818 0 0 1 1.158.052.823.823 0 0 1-.052 1.162l-10.37 9.517 13.84 12.131 13.393-12.714a.82.82 0 1 1 1.128 1.194l-13.935 13.229a.82.82 0 0 1-.564.224z"/><path d="M106.806 238.1a.817.817 0 0 1-.553-.216l-11.047-10.138a.825.825 0 0 1 .01-1.222l14.516-12.93a.82.82 0 0 1 1.089 0l14.51 12.93a.823.823 0 0 1-1.09 1.23l-13.964-12.444-13.293 11.84 10.375 9.52a.823.823 0 0 1-.553 1.43z"/><path d="M117.242 235.009a.815.815 0 0 1-.573-.235l-10.329-10.137a.82.82 0 1 1 1.147-1.175l10.329 10.137a.824.824 0 0 1-.574 1.41z"/><path d="M106.914 238.1a.823.823 0 0 1-.57-1.412l6.695-6.497a.821.821 0 0 1 1.14 1.182l-6.695 6.495a.816.816 0 0 1-.57.231zM103.303 235.009a.824.824 0 0 1-.553-1.429l11.046-10.138a.818.818 0 0 1 1.159.052.823.823 0 0 1-.052 1.162l-11.047 10.138a.815.815 0 0 1-.553.215z"/><path d="M114.35 238.1a.816.816 0 0 1-.537-.202l-7.081-6.16a.825.825 0 0 1-.082-1.162.82.82 0 0 1 1.157-.081l7.08 6.16a.825.825 0 0 1 .082 1.162.817.817 0 0 1-.62.282zM124.786 235.009a.817.817 0 0 1-.574-.235l-10.328-10.137a.82.82 0 1 1 1.147-1.175l10.328 10.137a.824.824 0 0 1-.573 1.41z"/><path d="M114.458 238.1a.823.823 0 0 1-.574-1.41l10.328-10.138a.821.821 0 0 1 1.147 1.175l-10.328 10.138a.819.819 0 0 1-.573.234zM462.062 248.237a.815.815 0 0 1-.54-.204l-15.09-13.228a.826.826 0 0 1-.014-1.225l11.046-10.138a.817.817 0 0 1 1.16.052.825.825 0 0 1-.051 1.162l-10.371 9.517 13.838 12.131 13.394-12.714a.82.82 0 1 1 1.128 1.194l-13.936 13.229a.817.817 0 0 1-.564.224z"/><path d="M458.019 238.1a.818.818 0 0 1-.555-.216l-11.047-10.138a.825.825 0 0 1 .01-1.222l14.517-12.93a.82.82 0 0 1 1.09 0l14.508 12.93a.823.823 0 0 1-1.089 1.23L461.49 215.31l-13.294 11.84 10.378 9.52a.821.821 0 1 1-.554 1.428z"/><path d="M468.454 235.009a.817.817 0 0 1-.574-.235l-10.328-10.137a.82.82 0 1 1 1.147-1.175l10.328 10.137a.823.823 0 0 1-.573 1.41z"/><path d="M458.126 238.1a.823.823 0 0 1-.57-1.412l6.694-6.497a.82.82 0 1 1 1.14 1.182l-6.694 6.495a.817.817 0 0 1-.57.231zM454.514 235.009a.818.818 0 0 1-.605-.266.825.825 0 0 1 .052-1.163l11.046-10.138a.822.822 0 0 1 1.108 1.214l-11.047 10.138a.818.818 0 0 1-.554.215z"/><path d="M465.561 238.1a.818.818 0 0 1-.538-.202l-7.08-6.16a.82.82 0 1 1 1.076-1.243l7.08 6.16a.827.827 0 0 1 .082 1.162.823.823 0 0 1-.62.282zM475.998 235.009a.815.815 0 0 1-.573-.235l-10.33-10.137a.82.82 0 1 1 1.147-1.175l10.33 10.137a.824.824 0 0 1-.574 1.41z"/><path d="M465.668 238.1a.823.823 0 0 1-.573-1.41l10.33-10.138a.82.82 0 0 1 1.146 1.175l-10.33 10.138a.818.818 0 0 1-.573.234zM547.637 67.355a2.463 2.463 0 0 0-2.46 2.466 2.463 2.463 0 0 0 2.46 2.466 2.462 2.462 0 0 0 2.455-2.466 2.462 2.462 0 0 0-2.455-2.466zm0 6.575a4.108 4.108 0 0 1-4.101-4.11 4.108 4.108 0 0 1 4.1-4.109c2.259 0 4.096 1.844 4.096 4.11s-1.837 4.11-4.095 4.11zM528.28 76.752a.824.824 0 0 1-.554-1.428l19.479-17.877a.821.821 0 0 1 1.11 1.212l-19.48 17.877a.82.82 0 0 1-.555.216z"/><path d="M547.757 82.204a.818.818 0 0 1-.552-.216L527.726 64.11a.824.824 0 0 1-.051-1.16.82.82 0 0 1 1.16-.052l19.48 17.877a.823.823 0 0 1-.558 1.428zM566.161 76.752a.814.814 0 0 1-.574-.235l-18.213-17.876a.824.824 0 0 1-.01-1.162.82.82 0 0 1 1.159-.014l18.212 17.877a.824.824 0 0 1-.574 1.41z"/><path d="M547.948 82.204a.824.824 0 0 1-.574-1.41l18.213-17.877a.82.82 0 0 1 1.16.014.824.824 0 0 1-.012 1.161L548.523 81.97a.816.816 0 0 1-.575.235zM493.628 90.76h-28.861a.82.82 0 0 1-.82-.822.82.82 0 0 1 .82-.822h28.861a.82.82 0 0 1 .82.822.82.82 0 0 1-.82.822zM524.239 121.446h-28.86a.82.82 0 0 1-.82-.822.82.82 0 0 1 .82-.822h28.86a.82.82 0 0 1 .82.822.82.82 0 0 1-.82.822z"/><path d="M463.813 120.154h-.013a.821.821 0 0 1-.807-.835l.462-29.394c.007-.454.446-.817.833-.809.453.008.813.381.807.835l-.463 29.394a.82.82 0 0 1-.82.81zM494.424 150.841h-.012a.822.822 0 0 1-.808-.835l.463-29.395c.008-.454.392-.794.833-.809.453.007.814.381.807.835l-.463 29.395a.821.821 0 0 1-.82.81zM108.114 90.76H80.068a.82.82 0 0 1-.82-.822.82.82 0 0 1 .82-.822h28.046a.82.82 0 0 1 .82.822.82.82 0 0 1-.82.822zM78.367 121.446H50.322a.82.82 0 0 1-.82-.822.82.82 0 0 1 .82-.822h28.045a.82.82 0 0 1 .82.822.82.82 0 0 1-.82.822z"/><path d="M109.041 120.154a.82.82 0 0 1-.82-.809l-.449-29.394a.82.82 0 0 1 .807-.835c.524.025.826.355.833.81l.449 29.393a.82.82 0 0 1-.807.835h-.013zM79.294 150.841a.821.821 0 0 1-.82-.809l-.449-29.395a.821.821 0 0 1 .807-.835h.013a.82.82 0 0 1 .82.81l.45 29.394a.82.82 0 0 1-.808.835h-.013zM3.13 219.05h14.778l-7.39-7.792-7.389 7.792zm16.688 1.644h-18.6a.82.82 0 0 1-.753-.498.826.826 0 0 1 .16-.89l9.199-9.702a.8.8 0 0 1 .695-.249.8.8 0 0 1 .695.249l9.199 9.701c.226.24.288.59.159.891a.82.82 0 0 1-.754.498z"/><path d="M27.602 243.946c-9.96 0-18.064-10.19-18.064-22.717a.82.82 0 1 1 1.64 0c0 11.62 7.367 21.073 16.424 21.073a.82.82 0 0 1 .82.822.82.82 0 0 1-.82.822z"/><path d="M28.562 249.372h12.62v-12.37h-12.62v12.37zm13.44 1.644h-14.26a.82.82 0 0 1-.82-.822v-14.015a.82.82 0 0 1 .82-.822h14.26a.82.82 0 0 1 .821.822v14.015a.82.82 0 0 1-.82.822zM554.586 219.05h14.517l-7.261-7.783-7.256 7.783zm16.403 1.644h-18.295a.823.823 0 0 1-.754-.495.832.832 0 0 1 .158-.889l9.044-9.701a.808.808 0 0 1 .7-.254.789.789 0 0 1 .7.254l9.048 9.701a.823.823 0 0 1-.601 1.383z"/><path d="M545.04 243.946a.82.82 0 0 1-.82-.822.82.82 0 0 1 .82-.822c8.9 0 16.14-9.454 16.14-21.073a.82.82 0 1 1 1.64 0c0 12.526-7.977 22.717-17.78 22.717z"/><path d="M531.693 249.372h12.39v-12.37h-12.39v12.37zm13.21 1.644h-14.03a.82.82 0 0 1-.82-.822v-14.015a.82.82 0 0 1 .82-.822h14.03a.82.82 0 0 1 .82.822v14.015a.82.82 0 0 1-.82.822zM421.539 20.039l7.291 4.22 7.292-4.22v-8.44l-7.292-4.22-7.291 4.22v8.44zm7.291 5.99a.824.824 0 0 1-.41-.11l-8.111-4.694a.824.824 0 0 1-.41-.712v-9.39c0-.293.157-.564.41-.711l8.111-4.694a.82.82 0 0 1 .82 0l8.112 4.694c.253.147.41.418.41.712v9.389a.824.824 0 0 1-.41.712l-8.112 4.694a.824.824 0 0 1-.41.11z"/><path d="M428.83 26.029a.82.82 0 0 1-.82-.822V6.43a.82.82 0 1 1 1.64 0v18.777a.82.82 0 0 1-.82.822zM153.973 84.506h10.28l-4.436-4.868a.826.826 0 0 1 0-1.11l4.436-4.867h-10.28l-5.418 5.423 5.418 5.422zm12.172 1.644h-12.511a.82.82 0 0 1-.58-.24l-6.239-6.244a.821.821 0 0 1 0-1.165l6.24-6.243a.82.82 0 0 1 .579-.24h12.478a.82.82 0 0 1 .606 1.376l-5.184 5.69 5.065 5.559a.823.823 0 0 1-.454 1.507z"/><path d="M171.69 79.906h-24.296a.82.82 0 0 1-.82-.822.82.82 0 0 1 .82-.823h24.297a.82.82 0 0 1 .82.823.82.82 0 0 1-.82.822zM445.668 18.483h-7.954a.82.82 0 0 1-.82-.822.82.82 0 0 1 .82-.822h7.954a.928.928 0 0 0 0-1.857h-7.954a.82.82 0 0 1-.82-.822.82.82 0 0 1 .82-.821h7.954a2.572 2.572 0 1 1 0 5.144zM420.586 18.483h-7.955a2.573 2.573 0 0 1 0-5.144h7.955a.82.82 0 0 1 .82.821.82.82 0 0 1-.82.822h-7.955a.927.927 0 0 0 0 1.857h7.955a.82.82 0 0 1 .82.822.82.82 0 0 1-.82.822zM139.068 20.039l7.292 4.22 7.291-4.22v-8.44l-7.291-4.22-7.292 4.22v8.44zm7.292 5.99a.821.821 0 0 1-.41-.11l-8.111-4.694a.821.821 0 0 1-.41-.712v-9.39c0-.293.155-.564.41-.711l8.11-4.694a.82.82 0 0 1 .821 0l8.111 4.694c.254.147.41.418.41.712v9.389a.823.823 0 0 1-.41.712l-8.111 4.694a.823.823 0 0 1-.41.11z"/><path d="M146.36 26.029a.82.82 0 0 1-.82-.822V6.43a.82.82 0 1 1 1.64 0v18.777a.82.82 0 0 1-.82.822zM163.198 18.483h-7.955a.82.82 0 0 1-.82-.822.82.82 0 0 1 .82-.822h7.955a.928.928 0 0 0 0-1.857h-7.955a.82.82 0 0 1-.82-.822.82.82 0 0 1 .82-.821h7.955a2.572 2.572 0 1 1 0 5.144zM138.115 18.483h-7.954a2.573 2.573 0 0 1 0-5.144h7.954a.82.82 0 0 1 .82.821.82.82 0 0 1-.82.822h-7.954a.928.928 0 0 0 0 1.857h7.954a.82.82 0 0 1 .82.822.82.82 0 0 1-.82.822zM173.891 74.598v9.243l4.555-4.622-4.555-4.62zm-.82 12.066a.822.822 0 0 1-.82-.822V72.597c0-.333.202-.633.509-.76a.817.817 0 0 1 .894.182l6.528 6.622a.822.822 0 0 1 0 1.156l-6.528 6.623a.82.82 0 0 1-.583.244zM407.843 84.506h10.787l5.657-5.422-5.657-5.423h-10.787l4.619 4.855a.822.822 0 0 1 0 1.135l-4.619 4.855zm11.116 1.644h-13.03a.82.82 0 0 1-.594-1.39l5.4-5.676-5.4-5.677a.82.82 0 1 1 .593-1.39h13.031c.211 0 .415.083.567.228l6.515 6.244a.822.822 0 0 1 0 1.189l-6.515 6.244a.82.82 0 0 1-.567.228z"/><path d="M425.474 79.906h-25.37a.82.82 0 0 1-.82-.822.82.82 0 0 1 .82-.823h25.37a.82.82 0 0 1 .82.823.82.82 0 0 1-.82.822zM382.955 292.126h7.84l5.659-5.421-5.658-5.421h-7.84l4.618 4.854a.822.822 0 0 1 0 1.134l-4.619 4.854zm8.169 1.644H381.04a.82.82 0 0 1-.593-1.388l5.4-5.677-5.4-5.677a.822.822 0 0 1 .593-1.388h10.084c.212 0 .413.082.567.228l6.516 6.243a.82.82 0 0 1 0 1.188l-6.516 6.243a.82.82 0 0 1-.567.228z"/><path d="M397.64 287.527h-11.479a.82.82 0 0 1-.82-.822.82.82 0 0 1 .82-.822h11.48a.82.82 0 0 1 .82.822.82.82 0 0 1-.82.822zM371.74 292.126h7.92l-4.656-4.85a.823.823 0 0 1 0-1.141l4.655-4.851h-7.919l-5.706 5.421 5.706 5.421zm9.878 1.644c-.008 0-.02.002-.032 0h-10.173a.819.819 0 0 1-.564-.225l-6.57-6.243a.825.825 0 0 1 0-1.194l6.57-6.243a.82.82 0 0 1 .564-.225h10.173a.821.821 0 0 1 .59 1.392l-5.444 5.673 5.324 5.548a.82.82 0 0 1-.439 1.517z"/><path d="M376.421 287.527h-11.578a.82.82 0 0 1-.82-.822.82.82 0 0 1 .82-.822h11.578a.82.82 0 0 1 .82.822.82.82 0 0 1-.82.822zM193.494 292.126h7.84l5.658-5.421-5.658-5.421h-7.84l4.619 4.854a.823.823 0 0 1 0 1.134l-4.62 4.854zm8.169 1.644h-10.085a.822.822 0 0 1-.593-1.388l5.401-5.677-5.401-5.677a.823.823 0 0 1 .593-1.388h10.085c.211 0 .414.082.567.228l6.515 6.243a.82.82 0 0 1 0 1.188l-6.515 6.243a.82.82 0 0 1-.567.228z"/><path d="M208.179 287.527h-11.48a.82.82 0 0 1-.82-.822.82.82 0 0 1 .82-.822h11.48a.82.82 0 0 1 .82.822.82.82 0 0 1-.82.822zM182.279 292.126h7.92l-4.657-4.85a.824.824 0 0 1 0-1.141l4.657-4.851h-7.92l-5.706 5.421 5.706 5.421zm9.88 1.644c-.012 0-.023-.002-.033 0h-10.174a.818.818 0 0 1-.564-.225l-6.571-6.243a.825.825 0 0 1 0-1.194l6.571-6.243a.818.818 0 0 1 .564-.225h10.174a.82.82 0 0 1 .59 1.392l-5.446 5.673 5.326 5.548a.824.824 0 0 1-.438 1.517z"/><path d="M186.96 287.527h-11.58a.82.82 0 0 1-.82-.822.82.82 0 0 1 .82-.822h11.58a.82.82 0 0 1 .82.822.82.82 0 0 1-.82.822zM393.023 79.22l4.819 4.681v-9.363l-4.819 4.681zm5.64 7.444a.817.817 0 0 1-.571-.232l-6.817-6.623a.82.82 0 0 1 0-1.18l6.817-6.622a.818.818 0 0 1 1.39.59v13.245a.823.823 0 0 1-.82.822zM255.541 55.908c-2.34 0-4.682-.87-6.464-2.613-2.126-2.08-3.298-4.847-3.298-7.79 0-2.943 1.172-5.71 3.298-7.788 5.323-5.207 18.564-2.95 19.127-2.852a.823.823 0 0 1-.284 1.62c-.127-.022-12.974-2.21-17.698 2.409-1.808 1.767-2.803 4.115-2.803 6.611 0 2.497.995 4.846 2.803 6.613 2.935 2.869 7.708 2.867 10.64 0a5.585 5.585 0 0 0 1.704-4.02 5.585 5.585 0 0 0-1.705-4.02c-1.694-1.656-4.15-.96-4.827-.3-.577.564-.92 1.284-.92 1.926 0 .546.242 1.06.722 1.53.324.317.33.837.014 1.162a.817.817 0 0 1-1.159.015c-.797-.78-1.218-1.716-1.218-2.707 0-1.092.517-2.223 1.416-3.103 1.188-1.161 4.68-2.081 7.117.3a7.217 7.217 0 0 1 2.2 5.197c0 1.965-.781 3.81-2.2 5.197-1.782 1.742-4.124 2.613-6.465 2.613z"/><path d="M269.024 40.506a.82.82 0 0 1-.82-.822v-7.603a.82.82 0 1 1 1.64 0v7.603a.82.82 0 0 1-.82.822zM240.328 38.523c-1.877 0-2.89 1.47-2.89 2.852 0 1.383 1.013 2.852 2.89 2.852 2.218 0 4.203-1.922 5.034-2.852-.83-.93-2.816-2.852-5.034-2.852zm0 7.347c-2.836 0-4.53-2.285-4.53-4.495s1.694-4.496 4.53-4.496c3.739 0 6.638 3.841 6.76 4.005a.822.822 0 0 1 0 .983c-.122.163-3.021 4.003-6.76 4.003zM314.933 55.908c-2.354 0-4.708-.87-6.498-2.611a7.196 7.196 0 0 1-2.215-5.199c0-1.966.786-3.811 2.215-5.198 2.445-2.38 5.955-1.46 7.149-.3.906.88 1.425 2.012 1.425 3.104 0 .992-.425 1.93-1.227 2.708a.818.818 0 0 1-1.16-.018.825.825 0 0 1 .02-1.162c.482-.47.727-.983.727-1.528 0-.64-.346-1.36-.926-1.925-.685-.663-3.161-1.358-4.868.3a5.565 5.565 0 0 0 0 8.038c2.953 2.868 7.76 2.873 10.717 0 1.817-1.768 2.819-4.116 2.819-6.612 0-2.495-1.002-4.843-2.819-6.61-4.764-4.627-17.688-2.434-17.816-2.41a.822.822 0 1 1-.282-1.62c.565-.1 13.885-2.353 19.238 2.85 2.14 2.08 3.318 4.846 3.318 7.79 0 2.945-1.177 5.712-3.318 7.792-1.792 1.74-4.146 2.611-6.499 2.611z"/><path d="M301.361 40.506a.82.82 0 0 1-.82-.822v-7.603a.82.82 0 1 1 1.64 0v7.603a.82.82 0 0 1-.82.822zM325.173 41.375c.838.932 2.835 2.852 5.067 2.852 1.893 0 2.915-1.47 2.915-2.852s-1.022-2.852-2.915-2.852c-2.232 0-4.23 1.921-5.067 2.852zm5.067 4.495c-3.757 0-6.672-3.838-6.795-4.002a.825.825 0 0 1 0-.985c.123-.164 3.038-4.004 6.795-4.004 2.85 0 4.555 2.287 4.555 4.496 0 2.21-1.704 4.495-4.555 4.495zM13.193 133.498c-2.39 0-4.795-.926-6.673-2.773-2.01-1.976-3.044-4.39-2.988-6.979.058-2.726 1.363-5.303 2.622-6.44.74-.67 1.872-1.83 2.782-2.764l.417-.426c-.724-.72-2.003-1.996-3.115-3.11-1.731-1.736-4.855-8.132.384-13.385 3.658-3.664 9.34-3.71 12.938-.104 2.997 3.005 3.043 7.847.103 10.794-2.34 2.348-6.423 2.348-8.764 0-2.043-2.048-1.248-4.989-.248-5.99 1.239-1.242 3.324-1.822 4.983-.16.32.32.32.84 0 1.161a.818.818 0 0 1-1.16 0c-1.192-1.195-2.427-.075-2.663.16-.196.198-.505.77-.55 1.535-.035.574.076 1.409.798 2.133 1.721 1.725 4.723 1.725 6.445 0 2.261-2.268 2.214-6.147-.104-8.47-2.948-2.957-7.613-2.908-10.619.103-4.354 4.366-1.805 9.635-.383 11.061 1.659 1.662 3.69 3.681 3.69 3.681a.826.826 0 0 1 .002 1.165l-.98 1c-.928.95-2.08 2.133-2.859 2.837-.776.7-2.027 2.746-2.08 5.255-.046 2.154.795 4.095 2.497 5.77 3.074 3.023 7.843 3.07 10.858.104a6.117 6.117 0 0 0 1.815-4.334c0-1.576-.607-3.042-1.709-4.126-1.821-1.79-4.783-1.788-6.604 0a2.642 2.642 0 0 0-.818 1.945c0 .842.347 1.496.566 1.711.243.239 1.52 1.368 2.748.16a.816.816 0 0 1 1.16.012.824.824 0 0 1-.012 1.162c-1.678 1.65-3.792 1.072-5.044-.16-.642-.631-1.058-1.763-1.058-2.885 0-.834.226-2.053 1.31-3.118 2.453-2.413 6.446-2.413 8.9 0 1.42 1.395 2.2 3.277 2.2 5.3 0 2.058-.84 4.066-2.306 5.507a9.207 9.207 0 0 1-6.48 2.668z"/><path d="M21.09 119.8h-5.292a.82.82 0 0 1-.82-.821.82.82 0 0 1 .82-.823h4.473v-8.05l-4.453.109a.808.808 0 0 1-.84-.802.823.823 0 0 1 .8-.842l5.293-.13c.215-.022.435.08.592.234a.821.821 0 0 1 .248.589v9.715a.82.82 0 0 1-.82.822z"/><path d="M29.703 114.992h-8.745a.82.82 0 0 1-.82-.821.82.82 0 0 1 .82-.823h8.745a.82.82 0 0 1 .82.823.82.82 0 0 1-.82.821z"/><path d="M34.213 110.746a3.424 3.424 0 0 0 0 6.849 3.424 3.424 0 0 0 0-6.85zm0 8.492c-2.788 0-5.056-2.273-5.056-5.067 0-2.796 2.268-5.07 5.056-5.07 2.788 0 5.057 2.274 5.057 5.07 0 2.794-2.269 5.067-5.057 5.067zM558.649 134.63c-2.346 0-4.56-.945-6.228-2.663-2.92-3-2.964-7.837-.104-10.78a5.947 5.947 0 0 1 4.292-1.827c1.624 0 3.15.649 4.292 1.827 2.018 2.073 1.241 4.948.24 5.976-.737.759-1.689 1.194-2.607 1.194-.842 0-1.635-.358-2.291-1.034a.82.82 0 1 1 1.176-1.148c.35.362.716.537 1.115.537.475 0 1.011-.26 1.432-.696.405-.414 1.094-2.307-.24-3.681a4.313 4.313 0 0 0-6.233 0c-2.21 2.271-2.16 6.156.103 8.484 1.356 1.398 3.15 2.167 5.053 2.167 1.957 0 3.821-.806 5.243-2.27 1.63-1.678 2.433-3.626 2.39-5.791-.05-2.513-1.247-4.56-1.985-5.26-.75-.703-1.848-1.882-2.729-2.83l-.946-1.007a.832.832 0 0 1 0-1.139c.006 0 1.947-2.018 3.532-3.682 1.362-1.428 3.8-6.71-.366-11.086-1.394-1.46-3.215-2.266-5.134-2.266-1.859 0-3.609.768-4.937 2.162-2.226 2.331-2.27 6.222-.104 8.497 1.635 1.708 4.456 1.71 6.085 0 1.313-1.377.635-3.28.235-3.695-.76-.793-1.716-.943-2.465-.158a.817.817 0 0 1-1.16.025.824.824 0 0 1-.027-1.162c.645-.68 1.433-1.039 2.264-1.039.907 0 1.848.437 2.575 1.199.979 1.027 1.733 3.898-.235 5.966-2.253 2.363-6.2 2.363-8.453 0-2.805-2.941-2.761-7.772.098-10.769 1.64-1.722 3.817-2.67 6.124-2.67 2.367 0 4.615.986 6.315 2.775 4.998 5.242 2.018 11.625.366 13.357a921.783 921.783 0 0 1-2.985 3.124l.416.445c.869.93 1.946 2.09 2.651 2.756 1.203 1.135 2.45 3.705 2.505 6.422.054 2.584-.935 4.995-2.854 6.972-1.734 1.786-4.014 2.768-6.42 2.768z"/><path d="M556.16 120.952h-5.057a.82.82 0 0 1-.82-.822v-9.715c0-.222.093-.435.252-.589.153-.154.388-.224.59-.233l5.058.13a.82.82 0 0 1 .798.842c-.011.454-.345.837-.837.801l-4.22-.108v8.05h4.237a.82.82 0 0 1 .82.822.82.82 0 0 1-.82.822z"/><path d="M551.234 116.143h-8.36a.82.82 0 0 1-.82-.822.82.82 0 0 1 .82-.822h8.36a.82.82 0 0 1 .82.822.82.82 0 0 1-.82.822z"/><path d="M538.566 111.897c-1.782 0-3.231 1.536-3.231 3.424s1.449 3.425 3.231 3.425c1.782 0 3.226-1.537 3.226-3.425s-1.444-3.424-3.226-3.424zm0 8.493c-2.685 0-4.872-2.274-4.872-5.07 0-2.794 2.187-5.067 4.872-5.067s4.866 2.273 4.866 5.068c0 2.795-2.181 5.069-4.866 5.069zM151.588 221.566l7.893 7.913 7.894-7.913-7.894-7.913-7.893 7.913zm7.893 9.897c-.21 0-.42-.08-.58-.24l-9.052-9.076a.822.822 0 0 1 0-1.162l9.053-9.076a.818.818 0 0 1 1.16 0l9.052 9.076c.32.32.32.84 0 1.162l-9.053 9.075c-.16.16-.37.24-.58.24z"/><path d="M168.534 222.387h-18.106a.82.82 0 0 1-.82-.821.82.82 0 0 1 .82-.822h18.106a.82.82 0 0 1 .82.822.82.82 0 0 1-.82.821zM403.877 221.566l7.893 7.913 7.894-7.913-7.894-7.913-7.893 7.913zm7.893 9.897c-.21 0-.42-.08-.58-.24l-9.053-9.076a.822.822 0 0 1 0-1.162l9.053-9.076a.818.818 0 0 1 1.16 0l9.053 9.076c.32.32.32.84 0 1.162l-9.053 9.075c-.16.16-.37.24-.58.24z"/><path d="M420.823 222.387h-18.106a.82.82 0 0 1-.82-.821.82.82 0 0 1 .82-.822h18.106a.82.82 0 0 1 .82.822.82.82 0 0 1-.82.821zM241.066 291.362h15.246l-7.175-9.887-8.07 9.887zm16.856 1.644h-18.586a.822.822 0 1 1-.635-1.342l9.84-12.055a.863.863 0 0 1 .658-.302c.253.009.49.134.64.34l8.746 12.054a.823.823 0 0 1-.663 1.305zM312.674 291.362h15.245l-7.174-9.887-8.071 9.887zm16.855 1.644h-18.585a.82.82 0 0 1-.634-1.342l9.84-12.055a.85.85 0 0 1 .658-.302c.253.009.49.134.639.34l8.745 12.054a.822.822 0 0 1-.663 1.305z"/></g></svg>